<svg width="71" height="70" viewBox="0 0 71 70" fill="none" xmlns="http://www.w3.org/2000/svg">
<path d="M70.3286 35C70.3286 54.33 54.6586 70 35.3286 70C15.9986 70 0.328613 54.33 0.328613 35C0.328613 15.67 15.9986 0 35.3286 0C54.6586 0 70.3286 15.67 70.3286 35Z" fill="#FB6F57"/>
<path d="M57.5989 18.0857C57.5989 16.9811 56.7034 16.0857 55.5989 16.0857H15.6763C14.5717 16.0857 13.6763 16.9811 13.6763 18.0857V51.8636C13.6763 52.9681 14.5717 53.8636 15.6763 53.8636H55.5989C56.7034 53.8636 57.5989 52.9681 57.5989 51.8636V18.0857Z" fill="#324A5E"/>
<path d="M15.804 51.3403V18.6087H55.4716V51.3403H15.804Z" fill="#324A5E"/>
<path d="M55.5311 18.5623H15.7739V47.8653H55.5311V18.5623Z" fill="#E6E9EE"/>
<path d="M43.7907 53.863H26.5115L23.1454 58.9738C22.7075 59.6387 23.1844 60.5238 23.9805 60.5238H46.2808C47.0745 60.5238 47.5519 59.6437 47.119 58.9784L43.7907 53.863Z" fill="#24323F"/>
<ellipse cx="35.6528" cy="51.0621" rx="2" ry="1.94121" fill="white"/>
<rect width="5.67819" height="25.1841" transform="matrix(0.729299 -0.684195 0.729299 0.684195 24.0723 27.0564)" fill="#FFD05B"/>
<rect width="2.27127" height="1.32548" transform="matrix(0.729299 -0.684195 0.729299 0.684195 26.0039 28.8706)" fill="#F9B54C"/>
<rect width="3.40691" height="1.32548" transform="matrix(0.729299 -0.684195 0.729299 0.684195 27.9375 30.6851)" fill="#F9B54C"/>
<rect width="3.40691" height="1.32548" transform="matrix(0.729299 -0.684195 0.729299 0.684195 31.8047 34.3123)" fill="#F9B54C"/>
<rect width="3.40691" height="1.32548" transform="matrix(0.729299 -0.684195 0.729299 0.684195 35.6709 37.9402)" fill="#F9B54C"/>
<rect width="2.27127" height="1.32548" transform="matrix(0.729299 -0.684195 0.729299 0.684195 39.5371 41.5669)" fill="#F9B54C"/>
<rect width="2.27127" height="1.32548" transform="matrix(0.729299 -0.684195 0.729299 0.684195 33.7378 36.1267)" fill="#F9B54C"/>
<rect width="2.27127" height="1.32548" transform="matrix(0.729299 -0.684195 0.729299 0.684195 37.604 39.7537)" fill="#F9B54C"/>
<rect width="2.27127" height="1.32548" transform="matrix(0.729299 -0.684195 0.729299 0.684195 29.8706 32.4985)" fill="#F9B54C"/>
<rect width="2.74425" height="17.4151" transform="matrix(0.729299 0.684195 -0.729299 0.684195 39.0229 26.167)" fill="#F1543F"/>
<rect width="2.95467" height="17.4151" transform="matrix(0.729299 0.684195 -0.729299 0.684195 41.0093 28.0308)" fill="#FF7058"/>
<rect width="5.67819" height="1.24394" transform="matrix(0.729299 0.684195 -0.729299 0.684195 26.3223 38.0823)" fill="black"/>
<path d="M25.415 38.9333L29.5561 42.8183L28.3545 43.9456C28.1531 44.1346 27.8266 44.1346 27.6252 43.9456L24.2134 40.7449C24.012 40.5559 24.012 40.2496 24.2134 40.0607L25.415 38.9333Z" fill="#6BD5E5"/>
<path d="M45.387 24.0824L43.1644 30.0525L39.0233 26.1675L45.387 24.0824Z" fill="white"/>
<path d="M45.3727 24.0716L44.8382 25.535L43.8408 24.5804L45.3727 24.0716Z" fill="black"/>
</svg>
