<svg width="180" height="39" viewBox="0 0 180 39" fill="none" xmlns="http://www.w3.org/2000/svg">
<path d="M8.84 25.376C8.84 26.72 9.288 27.776 10.184 28.544C11.08 29.28 12.024 29.648 13.016 29.648C14.04 29.648 14.984 29.36 15.848 28.784C16.744 28.176 17.464 27.872 18.008 27.872C18.968 27.872 20.136 28.72 21.512 30.416C22.248 31.344 22.616 32.176 22.616 32.912C22.616 34.128 21.736 35.264 19.976 36.32C18.152 37.6 15.912 38.24 13.256 38.24C10.28 38.24 7.416 37.168 4.664 35.024C3.352 34 2.28 32.64 1.448 30.944C0.616 29.216 0.2 27.328 0.2 25.28C0.2 23.2 0.616 21.328 1.448 19.664C2.28 17.968 3.352 16.608 4.664 15.584C7.32 13.472 10.152 12.416 13.16 12.416C14.376 12.416 15.56 12.592 16.712 12.944C17.864 13.264 18.712 13.584 19.256 13.904L20.024 14.384C20.6 14.768 21.048 15.072 21.368 15.296C22.2 15.936 22.616 16.672 22.616 17.504C22.616 18.304 22.28 19.216 21.608 20.24C20.456 22 19.352 22.88 18.296 22.88C17.688 22.88 16.824 22.528 15.704 21.824C15.128 21.28 14.296 21.008 13.208 21.008C12.152 21.008 11.16 21.392 10.232 22.16C9.304 22.928 8.84 24 8.84 25.376ZM24.9969 25.376C24.9969 21.536 26.3409 18.368 29.0289 15.872C31.7169 13.376 34.7889 12.128 38.2449 12.128C41.7009 12.128 44.7569 13.376 47.4129 15.872C50.0689 18.336 51.3969 21.488 51.3969 25.328C51.3969 27.984 50.7089 30.352 49.3329 32.432C47.9569 34.48 46.2769 36 44.2929 36.992C42.3409 37.952 40.3089 38.432 38.1969 38.432C36.0849 38.432 34.0369 37.92 32.0529 36.896C30.0689 35.84 28.3889 34.304 27.0129 32.288C25.6689 30.24 24.9969 27.936 24.9969 25.376ZM35.0289 28.832C36.0529 29.6 37.0929 29.984 38.1489 29.984C39.2049 29.984 40.2609 29.584 41.3169 28.784C42.3729 27.984 42.9009 26.8 42.9009 25.232C42.9009 23.664 42.4049 22.496 41.4129 21.728C40.4209 20.96 39.3489 20.576 38.1969 20.576C37.0449 20.576 35.9729 20.976 34.9809 21.776C33.9889 22.576 33.4929 23.76 33.4929 25.328C33.4929 26.864 34.0049 28.032 35.0289 28.832ZM71.4421 2.192C71.6981 1.712 72.1301 1.376 72.7381 1.184C73.3461 0.991998 74.1461 0.895997 75.1381 0.895997C76.1621 0.895997 76.9781 0.991998 77.5861 1.184C78.1941 1.376 78.6101 1.712 78.8341 2.192C79.0901 2.672 79.2341 3.104 79.2661 3.488C79.3301 3.84 79.3621 4.384 79.3621 5.12V33.776C79.3621 34.512 79.3301 35.072 79.2661 35.456C79.2341 35.808 79.0901 36.208 78.8341 36.656C78.3541 37.52 76.9941 37.952 74.7541 37.952C72.5461 37.952 71.3141 37.168 71.0581 35.6C69.7141 37.136 67.8421 37.904 65.4421 37.904C62.5621 37.904 59.9381 36.656 57.5701 34.16C55.2021 31.632 54.0181 28.704 54.0181 25.376C54.0181 22.016 55.2021 19.072 57.5701 16.544C59.9701 14.016 62.5941 12.752 65.4421 12.752C67.8101 12.752 69.6501 13.552 70.9621 15.152V5.072C70.9621 4.336 70.9781 3.792 71.0101 3.44C71.0741 3.056 71.2181 2.64 71.4421 2.192ZM63.6661 28.256C64.4981 29.12 65.5061 29.552 66.6901 29.552C67.8741 29.552 68.8501 29.12 69.6181 28.256C70.4181 27.392 70.8181 26.448 70.8181 25.424C70.8181 24.368 70.4341 23.392 69.6661 22.496C68.9301 21.6 67.9221 21.152 66.6421 21.152C65.3621 21.152 64.3381 21.6 63.5701 22.496C62.8021 23.36 62.4181 24.32 62.4181 25.376C62.4181 26.432 62.8341 27.392 63.6661 28.256Z" fill="white"/>
<path d="M91.6816 30.896H104.738C105.794 30.896 106.562 31.024 107.042 31.28C107.522 31.504 107.842 31.872 108.002 32.384C108.162 32.896 108.242 33.584 108.242 34.448C108.242 35.28 108.162 35.952 108.002 36.464C107.842 36.976 107.57 37.328 107.186 37.52C106.578 37.84 105.746 38 104.69 38H87.4096C85.1696 38 83.8576 37.392 83.4736 36.176C83.2816 35.664 83.1856 34.848 83.1856 33.728V7.04C83.1856 6.304 83.2016 5.76 83.2336 5.408C83.2976 5.024 83.4576 4.592 83.7136 4.112C84.1616 3.248 85.4096 2.816 87.4576 2.816C89.6976 2.816 91.0256 3.408 91.4416 4.592C91.6016 5.136 91.6816 5.968 91.6816 7.088V30.896ZM111.358 16.928C111.358 16.192 111.374 15.648 111.406 15.296C111.47 14.912 111.614 14.48 111.838 14C112.286 13.168 113.534 12.752 115.582 12.752C117.118 12.752 118.206 13.024 118.846 13.568C119.39 14.016 119.678 14.704 119.71 15.632C119.742 15.952 119.758 16.416 119.758 17.024V33.824C119.758 34.56 119.726 35.12 119.662 35.504C119.63 35.856 119.486 36.272 119.23 36.752C118.814 37.584 117.582 38 115.534 38C113.518 38 112.286 37.568 111.838 36.704C111.614 36.224 111.47 35.808 111.406 35.456C111.374 35.104 111.358 34.544 111.358 33.776V16.928ZM119.23 8.048C119.006 8.496 118.59 8.816 117.982 9.008C117.374 9.2 116.558 9.296 115.534 9.296C114.542 9.296 113.742 9.2 113.134 9.008C112.526 8.816 112.094 8.48 111.838 8C111.614 7.52 111.47 7.104 111.406 6.752C111.374 6.368 111.358 5.808 111.358 5.072C111.358 4.336 111.374 3.792 111.406 3.44C111.47 3.056 111.614 2.64 111.838 2.192C112.286 1.328 113.534 0.895997 115.582 0.895997C117.598 0.895997 118.814 1.328 119.23 2.192C119.486 2.672 119.63 3.104 119.662 3.488C119.726 3.84 119.758 4.384 119.758 5.12C119.758 5.856 119.726 6.416 119.662 6.8C119.63 7.152 119.486 7.568 119.23 8.048ZM138.28 21.2L135.16 21.008V27.632C135.16 28.496 135.288 29.12 135.544 29.504C135.832 29.888 136.344 30.08 137.08 30.08C137.848 30.08 138.424 30.112 138.808 30.176C139.224 30.208 139.656 30.352 140.104 30.608C140.84 31.024 141.208 32.096 141.208 33.824C141.208 35.84 140.76 37.072 139.864 37.52C139.384 37.744 138.952 37.888 138.568 37.952C138.216 37.984 137.688 38 136.984 38C133.656 38 131.128 37.248 129.4 35.744C127.672 34.24 126.808 31.696 126.808 28.112V21.008C126.2 21.104 125.544 21.152 124.84 21.152C124.136 21.152 123.544 20.88 123.064 20.336C122.616 19.792 122.392 18.864 122.392 17.552C122.392 16.24 122.472 15.296 122.632 14.72C122.792 14.112 123.016 13.68 123.304 13.424C123.816 13.008 124.456 12.8 125.224 12.8L126.808 12.992V8.048C126.808 7.312 126.824 6.768 126.856 6.416C126.92 6.064 127.08 5.68 127.336 5.264C127.752 4.464 128.984 4.064 131.032 4.064C133.208 4.064 134.504 4.656 134.92 5.84C135.08 6.352 135.16 7.168 135.16 8.288V12.992C136.568 12.864 137.624 12.8 138.328 12.8C139.064 12.8 139.608 12.832 139.96 12.896C140.344 12.928 140.776 13.072 141.256 13.328C142.088 13.744 142.504 14.976 142.504 17.024C142.504 19.04 142.072 20.272 141.208 20.72C140.728 20.944 140.296 21.088 139.912 21.152C139.56 21.184 139.016 21.2 138.28 21.2ZM168.601 22.352C168.601 24.304 168.105 25.76 167.113 26.72C166.153 27.648 165.081 28.112 163.897 28.112H152.521C152.521 29.008 153.049 29.76 154.105 30.368C155.161 30.976 156.217 31.28 157.273 31.28C159.129 31.28 160.585 31.088 161.641 30.704L162.169 30.512C162.937 30.16 163.577 29.984 164.089 29.984C165.113 29.984 165.993 30.704 166.729 32.144C167.145 33.008 167.353 33.744 167.353 34.352C167.353 37.2 163.945 38.624 157.129 38.624C154.761 38.624 152.649 38.224 150.793 37.424C148.969 36.592 147.545 35.504 146.521 34.16C144.505 31.568 143.497 28.672 143.497 25.472C143.497 21.44 144.793 18.224 147.385 15.824C150.009 13.392 153.273 12.176 157.177 12.176C161.625 12.176 164.889 13.744 166.969 16.88C168.057 18.544 168.601 20.368 168.601 22.352ZM158.473 23.744C159.689 23.744 160.297 23.232 160.297 22.208C160.297 21.472 160.009 20.88 159.433 20.432C158.889 19.984 158.089 19.76 157.033 19.76C156.009 19.76 154.985 20.192 153.961 21.056C152.937 21.888 152.425 22.784 152.425 23.744H158.473ZM179.173 30.08C179.717 30.624 179.989 31.744 179.989 33.44V33.632C179.989 34.4 179.957 34.976 179.893 35.36C179.861 35.712 179.701 36.144 179.413 36.656C178.933 37.584 177.717 38.048 175.765 38.048C173.845 38.048 172.565 37.744 171.925 37.136C171.317 36.528 171.013 35.376 171.013 33.68V33.488C171.013 32.752 171.029 32.192 171.061 31.808C171.125 31.424 171.285 30.992 171.541 30.512C172.021 29.552 173.221 29.072 175.141 29.072C177.093 29.072 178.437 29.408 179.173 30.08Z" fill="#FAFF00"/>
</svg>
