<svg width="292" height="481" viewBox="0 0 292 481" fill="none" xmlns="http://www.w3.org/2000/svg">
<path d="M94.5034 450.459C86.9336 452.198 81.4311 451.042 79.2658 450.459L72.4383 457.498C71.0925 459.405 68.5852 462.111 67.4871 462.929C63.7302 464.274 60.0808 467.228 58.7256 468.536C57.5341 470.405 55.6977 474.662 57.8846 476.737C60.0714 478.811 65.4311 480.031 67.8376 480.381C69.66 480.498 74.2439 480.452 78.0008 479.33C81.7578 478.209 85.781 473.349 87.323 471.059C87.8604 469.985 89.7201 467.499 92.8602 466.153C96.0003 464.807 97.6732 462.975 98.1171 462.228C98.7339 458.078 95.6716 452.912 94.5034 450.459Z" fill="#FFE640"/>
<path d="M138.494 447.297C127.581 443.495 124.15 441.056 123.798 440.312H118.263L113.567 446.83L115.74 456.362L124.291 467.647L127.445 474.796L134.314 478.441L144.337 477.32L146.58 474.796L147.702 468.068L140.833 454.4L138.494 447.297Z" fill="#FFE640"/>
<path d="M137.988 206.812L145.811 196.49C147.4 198.437 149.95 198.476 151.059 198.311V202.916L137.988 206.812Z" fill="#FB6F57"/>
<path d="M81.9091 286.592L112.125 253.457L108.98 267.554L84.9828 294.667L81.9091 286.592Z" fill="#FB6F57"/>
<path d="M91.5741 312.095L90.3993 309.004C90.8052 307.579 122.147 276.455 123.111 274.527C123.882 272.984 124.901 267.734 125.169 265.618C126.936 271.241 130.413 290.201 129.966 293.18C129.609 295.563 118.815 303.667 113.469 307.357L97.1007 312.181L91.5741 312.095Z" fill="#FB6F57"/>
<path d="M259.071 189.874C240.227 161.777 192.572 167.615 171.321 174.085L170.594 177.263L169.88 182.622C168.559 184.229 169.945 197.373 170.656 203.692C183.509 208.392 196.754 215.321 200.186 223.733C202.932 230.463 203.301 265.388 203.266 282.03C203.682 285.254 202.641 288.59 202.035 289.933L183.302 297.205L185.706 313.917C190.775 317.166 195.958 338.884 196.478 340.444C196.893 341.692 191.678 353.198 188.992 359.22C188.656 368.642 157.659 418.483 141.882 441.812L139.549 441.583L138.506 447.135C138.069 450.789 139.736 456.306 141.126 458.705C142.268 460.095 145.401 464.245 145.838 468.852C146.275 473.459 144.35 475.617 143.208 476.279C143.125 476.733 141.966 477.624 137.16 477.368C132.355 477.111 128.287 470.8 127.193 467.024C125.878 463.384 120.124 458.48 120.124 458.116C120.124 457.752 118.562 455.893 118.047 455.064C116.657 453.197 117.13 450.232 117.592 448.96L125.985 437.268L124.628 436.59L124.757 436.186C124.341 435.25 137.776 400.641 144.659 383.506C155.771 360.787 154.496 352.167 152.409 350.735C145.276 341.545 136.489 340.609 133.034 341.546L121.52 344.092L110.892 345.974C100.797 345.974 91.6415 350.374 88.4168 352.617C83.7026 362.207 88.3202 380.201 91.4061 387.492L96.9771 445.506L94.4605 446.336V450.533C95.3045 452.155 96.9893 456.341 97.4659 460.193C97.9403 464.028 90.8534 466.704 87.7195 467.888L87.6759 467.904C83.7042 474.616 78.925 478.721 76.5493 479.749C92.4584 481.521 131.062 479.417 148.191 477.94C180.041 475.49 214.545 462.627 227.816 456.502C274.093 426.014 282.796 389.845 281.363 375.572C286.325 297.046 284.272 264.199 282.625 257.592C279.26 220.41 265.52 196.954 259.071 189.874Z" fill="#FB6F57"/>
<path d="M42.3494 327.704H56.4454C47.6429 336.42 51.984 354.526 55.0996 362.552L76.5427 446.028L79.2285 446.504V450.533C77.9181 451.822 75.0031 454.848 73.8255 456.643C72.648 458.437 69.9369 461.486 68.3014 462.887C66.9463 463.168 64.0134 464.727 60.8733 467.904C57.7332 471.082 56.8857 474.858 57.5399 476.349H56.8178L56.8134 476.348C54.838 476.083 43.9292 474.619 30.9881 466.608C18.0374 458.591 8.97529 443.796 6.06308 437.4C1.87731 429.8 -2.96127 407.807 8.51976 380.899C20.0008 353.99 35.8566 334.224 42.3494 327.704Z" fill="#FB6F57"/>
<path d="M182.666 277.568L183.062 260.712C183.446 262.682 184.435 267.24 185.323 269.715C186.211 272.19 183.922 275.981 182.666 277.568Z" fill="#FB6F57"/>
<path d="M182.966 136.726V40.9585C219.08 41.0381 291.333 41.1973 291.435 41.1973C291.537 41.1973 291.477 93.8116 291.435 120.119H199.905L182.966 136.726Z" fill="#1537EB"/>
<circle cx="210.756" cy="83.8048" r="7.97134" fill="white" fill-opacity="0.9"/>
<circle cx="237.229" cy="83.8048" r="7.97134" fill="white" fill-opacity="0.9"/>
<circle cx="265.129" cy="83.8048" r="7.97134" fill="white" fill-opacity="0.9"/>
<circle cx="50.2271" cy="31.8577" r="31.4385" fill="#FF8500"/>
<circle cx="50.2269" cy="31.8578" r="26.1541" fill="white"/>
<path d="M56.951 18.5487L48.4666 36.8866L36.9027 31.8915C34.0015 32.2199 34.0972 34.7197 34.5077 35.9286L51.4088 43.5238L61.4673 21.1488C61.3031 16.4959 58.388 17.4767 56.951 18.5487Z" fill="#FF8500"/>
<path d="M135.547 153.594C134.05 164.311 135.592 167.422 136.53 167.57C148.357 166.783 153.515 165.555 154.593 164.898C161.054 163.559 160.442 170.223 159.814 173.76H163.08C163.542 166.479 165.372 167.311 166.346 168.356C169.317 168.502 168.762 170.916 168.449 172.562L170.692 176.993C173.18 166.634 172.628 155.469 172.041 151.181C170.859 147.674 166.558 147.651 164.555 148.078C147.677 140.627 138.184 148.651 135.547 153.594Z" fill="#434343"/>
<path d="M150.925 198.605C141.167 199.254 137.231 178.173 136.483 167.552C150.804 166.012 154.502 164.902 154.561 164.539C161.215 163.569 161.287 170.137 160.491 173.543H162.966C162.958 172.774 163.394 170.512 163.613 169.478C164.061 166.562 165.749 166.825 166.474 167.398C169.221 167.398 169.35 170.753 169.116 172.423L170.622 177.188L170.061 182.585C168.715 185.276 169.874 197.678 170.622 203.542L178.262 206.626C174.64 213.916 163.111 228.726 148.756 227.829C134.401 226.931 140.68 211.792 145.68 204.48C160.315 201.059 166.113 193.028 166.977 189.594C164.846 193.631 155.388 197.284 150.925 198.605Z" fill="#EEA886"/>
<path d="M151.059 198.291C155.751 196.59 165.256 192.323 167.391 189.131C167.541 188.806 167.674 188.508 167.792 188.244C167.733 188.528 167.596 188.824 167.391 189.131C165.561 193.094 161.155 201.202 151.059 202.943V198.291Z" fill="#A87761"/>
<path d="M94.6747 446.256C89.2665 447.708 82.0369 446.861 79.0981 446.256V450.48C87.3002 452.333 92.9 451.252 94.6747 450.48V446.256Z" fill="#EEA886"/>
<path d="M139.707 441.356C136.417 441.43 129.149 438.496 125.999 436.992L123.777 440.285C125.127 442.544 134.217 445.878 138.502 447.3L139.707 441.356Z" fill="#EEA886"/>
<path d="M100.609 276.986L85.0366 294.533L90.3 309.071L110.765 287.813C109.759 285.264 103.575 279.533 100.609 276.986Z" fill="#EEA886"/>
<path d="M118.843 303.312L108.65 311.007L112.505 311.614C112.987 312.792 108.463 319.593 107.633 319.968C106.969 320.267 107.677 320.753 108.115 320.958L110.471 322.109C113.662 328.021 119.279 323.002 121.689 319.753C123.017 317.697 124.544 317.13 125.142 317.103C126.535 317.296 130.762 315.913 132.702 315.198L177.996 299.435C177.719 289.732 173.612 285.467 171.594 284.547L135.022 304.573C128.725 302.902 121.612 303.036 118.843 303.312Z" fill="#EEA886"/>
<path d="M153.152 308.223L185.186 313.397C190.819 318.068 195.072 333.366 196.494 340.432C197.014 341.784 191.741 353.626 189.04 359.379C191.059 367.622 158.5 417.751 141.969 441.785C138.042 442.178 128.678 438.501 124.487 436.614C124.175 435.262 140.368 394.142 148.503 373.75C154.672 360.897 154.126 353.828 153.082 351.9C149.226 346.181 142.045 342.656 138.936 341.608L132.999 341.779L113.136 346.153C96.3356 347.742 89.5814 351.847 88.3044 353.7C84.4348 361.776 88.9781 379.674 91.7334 387.613C92.4613 388.341 95.5483 426.539 97.0008 445.547C90.8843 447.97 80.7828 446.887 76.4966 446.043L52.8706 355.899C47.3596 341.862 53.3169 330.552 56.51 327.436H97.1498L110.417 322.029C110.649 322.476 111.455 323.535 112.131 324.171C112.975 324.965 117.135 325.426 120.511 320.958C123.211 317.384 124.796 316.991 125.209 317.123L127.664 316.765L153.152 308.223Z" fill="#1537EB"/>
<path d="M113.73 307.201L97.3242 312.116L112.355 312.734L112.522 312.082L112.543 311.809L112.522 311.609L108.667 311.023L113.73 307.201Z" fill="#C4C4C4"/>
<path d="M100.458 277.104L108.98 267.634L112.676 250.845C112.609 244.074 115.295 226.802 126.573 211.885C128.763 210.635 135.716 207.31 146.002 204.014C142.511 208.863 136.877 219.891 142.279 225.213C149.031 231.866 164.729 222.971 164.89 222.328C165.051 221.685 175.574 213.974 177.984 206.262C184.544 209.208 198.147 216.834 200.075 223.774C201.584 225.793 204.35 240.263 203.34 281.987C203.507 283.881 203.474 288.126 202.004 289.953L183.425 297.223L185.422 313.386L152.953 308.223L178.297 299.23C177.994 295.417 176.27 287.116 171.798 284.412L135.24 304.634C131.626 304.019 123.112 302.909 119.058 303.308C123.008 300.382 130.676 293.994 129.922 292.723L129.903 292.601C128.654 284.53 126.194 268.623 125.25 265.851C125.209 265.73 125.172 265.635 125.137 265.566C125.053 267.38 124.597 271.763 123.44 274.784L110.828 287.636C109.248 285.36 104.763 280.189 100.458 277.104Z" fill="#FAFF00"/>
<path d="M74.9575 268.555L0.983398 269.548L22.7163 327.434H97.0624L91.318 312.133L74.9575 268.555Z" fill="#FF8500" stroke="#FF8500" stroke-width="0.5"/>
<path d="M112.364 312.702L91.5576 312.152L97.2665 327.334L110.504 322.156C109.798 321.993 108.125 320.883 107.331 320.314C108.921 319.637 111.349 314.957 112.364 312.702Z" fill="#E90000"/>
<path d="M91.4014 312.171L112.395 312.703M97.2 327.52L110.505 322.178" stroke="#FF8500" stroke-width="0.5"/>
</svg>
