<svg width="524" height="430" viewBox="0 0 524 430" fill="none" xmlns="http://www.w3.org/2000/svg">
<path d="M81.1377 240.303L74.5684 223.105L121.807 223.107L132.916 248.707L123.739 240.303H81.1377Z" fill="#1537EB" fill-opacity="0.2"/>
<path d="M41.2337 466.368C23.7067 408.93 138.256 225.965 210.141 198.498L211.932 232.57L236.343 213.432L240.182 213.02L250.066 185.487L277.599 229.054L322.503 172.768C364.757 188.509 384.618 201.582 416.312 229.054C462.448 270.978 480.034 344.98 500.958 540.795H117.28C121.798 527.349 122.372 511.721 123.212 483.087L110.134 491.851L97.0551 500.615C66.0439 512.48 50.0354 503.547 41.2337 466.368Z" fill="#2E97F2"/>
<path d="M329.482 422.343C322.688 415.861 274.534 408.755 217.116 392.253L323.81 410.999C346.13 349.872 364.243 320.962 397.711 267.992C364.997 323.792 329.482 422.343 329.482 422.343Z" fill="#0F5FA4"/>
<path d="M179.53 298.637H146.111C140.298 298.637 135.71 303.576 136.138 309.373L140.2 364.435C144.536 361.267 147.254 360.562 152.604 361.469C150.075 358.971 150.973 354.057 150.973 354.057C150.973 354.057 156.534 353.123 163.391 353.649C170.248 354.174 181.189 361.469 181.189 361.469L193.054 374.143L189.516 308.102C189.232 302.795 184.845 298.637 179.53 298.637Z" fill="#D5EAFD"/>
<path d="M168.551 301.215L141.227 342.566L142.256 363.476L190.668 371.716L187.466 310.518C187.184 305.128 182.677 300.935 177.281 301.042L168.551 301.215Z" fill="#C4C4C4"/>
<path d="M124.443 450.168C118.924 437.92 107.772 413.401 107.318 413.31C113.836 397.345 117.992 388.721 127.594 374.773C131.716 366.796 137.465 363.659 152.455 359.91C152.455 359.91 160.593 366.2 159.133 365.851L158.472 387.24C168.582 391.502 170.487 408.206 170.487 408.206C163.835 411.03 159.769 413.254 152.455 417.345C141.516 429.879 135.383 437.634 124.443 450.168Z" fill="#F7B3A0"/>
<path d="M210.716 435.146L214.386 394.41C203.371 386.99 198.284 381.874 190.715 371.472C179.689 359.27 173.422 355.477 157.876 353.451C154.539 352.884 151.555 352.853 150.567 353.673C149.277 354.742 150.586 359.358 150.976 359.965C151.366 360.571 152.196 360.515 153.11 361.134C153.939 361.695 154.408 361.805 154.98 362.426C153.319 362.51 152.093 362.741 150.976 363.038C146.962 364.103 146.573 365.639 147.451 369.407C147.754 370.707 150.115 371.977 150.115 371.977L152.331 372.484C152.331 372.484 147.566 373.236 146.093 373.713C144.62 374.189 144.057 376.729 144.274 378.722C144.418 380.049 144.509 381.237 146.093 382.101C147.046 382.621 146.858 382.494 147.451 382.923C148.044 383.353 141.848 383.082 141.469 385.956C141.278 387.408 140.605 387.889 142.67 389.509C144.024 390.569 148.661 388.953 150.976 391.256C159.502 394.955 162.756 399.165 170.9 407.987C182.802 425.253 192.271 430.202 210.716 435.146Z" fill="#FCC3B2"/>
<path d="M155.427 362.574C162.721 362.75 179.104 371.052 185.667 378.969" stroke="black" stroke-width="0.5"/>
<path d="M153.101 372.387C160.991 370.553 169.013 376.254 181.391 385.891" stroke="black" stroke-width="0.5"/>
<path d="M174.23 394.938C164.928 384.909 159.048 384.009 148.433 383.314" stroke="black" stroke-width="0.5"/>
<path d="M141.187 305.28C140.602 305.543 140.325 305.828 139.922 306.326C139.674 306.63 139.533 306.593 139.387 307.176C139.242 307.76 139.241 308.271 139.241 308.271V309.559L139.533 310.775L140.189 311.48C140.189 311.48 141.132 312.122 141.819 312.332C142.549 312.555 143.764 312.526 143.764 312.526L144.688 312.332L145.758 311.48L146.487 310.24L146.658 309.365V308.271L146.05 306.86L144.858 305.839C144.858 305.839 143.853 305.345 143.424 305.158C142.994 304.972 141.984 304.92 141.187 305.28Z" fill="black"/>
<path d="M211.774 235.182L209.733 189.338L237.392 215.133L211.774 235.182Z" fill="#1060A5"/>
<path d="M228.426 175.356L209.726 189.333L237.382 215.121L240.47 213.293L228.426 175.356Z" fill="#3680BF"/>
<path d="M293.478 143.748L249.988 185.219L277.71 229.47L322.575 172.825L293.478 143.748Z" fill="#6DBAFE"/>
<path d="M182.622 91.6809C181.649 92.4264 180.088 93.0421 180.24 93.7224C180.391 94.4028 181.037 97.1258 182.622 96.5574L184.209 95.7635C184.209 95.7635 184.716 95.0304 185.117 94.6294C185.518 94.2284 185.771 94.0253 186.251 93.7224C186.612 93.4942 186.881 93.4821 187.221 93.2174C187.562 92.9527 188.855 92.441 188.855 92.441L189.993 91.6809L191.808 90.5468L193.622 89.5262C194.187 89.1816 194.273 89.2068 194.53 88.8457C195.017 88.1596 195.305 87.0176 194.53 86.6911C194.203 86.5536 194.076 86.5399 193.622 86.6911C193.169 86.8423 189.993 87.938 189.993 87.938L187.839 88.8457L186.251 89.5262C186.251 89.5262 184.701 90.2822 184.209 90.5468C183.718 90.8114 183.226 91.2173 182.622 91.6809Z" fill="black"/>
<path d="M185.396 49.6125C169.983 51.0808 165.573 84.9701 174.204 112.187L189.067 149.254C197.793 170.792 206.945 173.687 227.052 170.723L228.506 175.544L240.263 212.561L250.723 185.219C250.723 185.219 281.355 159.725 282.835 153.107C284.315 146.489 265.207 117.245 270.357 112.187C275.507 107.128 286.071 94.3766 275.128 84.8453C260.4 73.21 256.059 97.4173 257.145 98.4242H249.071C246.783 81.2605 224.177 81.0995 216.592 81.9093L222.097 50.8976C222.097 50.8976 200.81 48.1442 185.396 49.6125Z" fill="#FDC2B2"/>
<path d="M225.899 140.027C218.264 139.835 216.297 143.175 215.173 150.592C218.684 151.474 220.862 151.509 223.656 149.209C226.506 146.863 226.833 144.579 225.899 140.027Z" fill="#FD9795"/>
<path d="M153.477 111.073C158.235 109.552 163.457 97.3234 148.941 93.2682C137.252 90.0029 146.679 62.2743 146.679 62.2743C146.679 62.2743 160.626 27.2258 178.241 25.024C195.856 22.8222 197.876 25.024 197.876 25.024C197.876 25.024 207.4 1.8374 224.483 6.1236C251.137 12.8113 276.23 26.8587 276.23 42.8233C276.23 58.788 275.618 85.5562 275.618 85.5562C264.726 79.1016 260.924 81.2275 256.962 98.6071H249.255C245.458 87.1447 240.227 82.3587 216.042 81.7252C212.188 81.0969 209.929 81.0551 207.953 74.7939C205.373 50.6702 161.313 44.5819 173.437 112.774C164.139 124.986 148.719 112.594 153.477 111.073Z" fill="black"/>
<path d="M226.008 135.858C219.32 136.034 208.4 140.014 208.4 140.014C208.4 140.014 211.778 146.873 214.673 150.199C216.204 142.471 218.644 140.169 226.008 140.014V135.858Z" fill="#D04037"/>
<path d="M93.6126 415.267L50.7842 454.231C52.6041 445.736 55.1959 441.495 62.2118 434.734C69.2276 427.974 93.6126 415.267 93.6126 415.267Z" fill="#105FA1"/>
<path d="M210.275 123.231C208.278 120.896 210.76 114.724 210.76 114.724L211.317 124.187C211.317 124.187 210.634 123.651 210.275 123.231Z" fill="black"/>
<path d="M193.534 116.061C193.534 116.061 192.975 114.968 192.823 114.208C192.737 113.781 192.706 113.298 192.706 113.099C192.706 112.9 193.037 112.404 193.037 112.404L193.699 111.792L194.692 111.345H195.635H196.098L196.496 111.643L196.926 112.404L197.521 113.298L197.637 114.042V114.87V115.532L197.273 116.458L196.926 117.12L196.413 117.583H195.734L195.023 117.484L194.51 117.219L194.096 116.789C194.096 116.789 193.782 116.442 193.699 116.326C193.616 116.21 193.534 116.061 193.534 116.061Z" fill="black"/>
<path d="M227.208 105.185C227.208 105.185 226.649 104.092 226.496 103.332C226.41 102.905 226.38 102.422 226.38 102.223C226.38 102.024 226.711 101.528 226.711 101.528L227.373 100.916L228.366 100.469H229.309H229.772L230.169 100.767L230.6 101.528L231.195 102.422L231.311 103.166V103.994V104.656L230.947 105.582L230.6 106.244L230.087 106.707H229.408L228.697 106.608L228.184 106.343L227.77 105.913C227.77 105.913 227.456 105.566 227.373 105.45C227.29 105.334 227.208 105.185 227.208 105.185Z" fill="black"/>
<path d="M58.0938 282.497L55.4209 260.527H127.866L141.227 289.029L130.241 282.497H58.0938Z" fill="#CCE0FF"/>
<path d="M229.523 178.891L227.062 170.711C243.616 165.888 251.332 159.542 263.126 143.719C255.957 162.461 249.507 171.394 229.523 178.891Z" fill="#D17163"/>
</svg>
