<svg width="292" height="464" viewBox="0 0 292 464" fill="none" xmlns="http://www.w3.org/2000/svg">
<path d="M94.5093 433.459C86.9394 435.198 81.437 434.042 79.2717 433.459L72.4441 440.498C71.0984 442.405 68.5911 445.111 67.493 445.929C63.7361 447.274 60.0866 450.228 58.7315 451.536C57.5399 453.405 55.7036 457.662 57.8904 459.737C60.0773 461.811 65.437 463.031 67.8434 463.381C69.6658 463.498 74.2498 463.452 78.0067 462.33C81.7636 461.209 85.7868 456.349 87.3288 454.059C87.8662 452.985 89.726 450.499 92.8661 449.153C96.0062 447.807 97.679 445.975 98.123 445.228C98.7398 441.078 95.6775 435.912 94.5093 433.459Z" fill="#FFE640"/>
<path d="M138.499 430.297C127.587 426.495 124.155 424.056 123.804 423.312H118.269L113.573 429.83L115.746 439.362L124.297 450.647L127.451 457.796L134.32 461.441L144.343 460.32L146.586 457.796L147.708 451.068L140.839 437.4L138.499 430.297Z" fill="#FFE640"/>
<path d="M137.74 189.811L145.564 179.49C147.152 181.436 149.702 181.476 150.811 181.311V185.916L137.74 189.811Z" fill="#FB6F57"/>
<path d="M81.6616 269.592L111.878 236.457L108.733 250.554L84.7353 277.667L81.6616 269.592Z" fill="#FB6F57"/>
<path d="M91.3266 295.095L90.1518 292.004C90.5576 290.579 121.899 259.454 122.863 257.527C123.635 255.984 124.654 250.733 124.922 248.618C126.689 254.241 130.166 273.201 129.719 276.18C129.361 278.563 118.567 286.667 113.222 290.357L96.8532 295.181L91.3266 295.095Z" fill="#FB6F57"/>
<path d="M258.823 172.874C239.98 144.777 192.324 150.615 171.073 157.084L170.346 160.263L169.632 165.622C168.311 167.228 169.698 180.373 170.409 186.692C183.262 191.391 196.506 198.32 199.938 206.733C202.684 213.462 203.054 248.387 203.018 265.03C203.434 268.253 202.394 271.59 201.787 272.933L183.054 280.205L185.458 296.917C190.527 300.166 195.71 321.884 196.23 323.444C196.646 324.691 191.431 336.198 188.745 342.22C188.408 351.642 157.411 401.482 141.634 424.811L139.302 424.583L138.258 430.135C137.821 433.789 139.488 439.305 140.878 441.705C142.02 443.095 145.153 447.245 145.59 451.852C146.027 456.459 144.102 458.617 142.961 459.279C142.878 459.733 141.719 460.624 136.913 460.367C132.107 460.11 128.04 453.8 126.945 450.023C125.63 446.384 119.876 441.48 119.876 441.116C119.876 440.752 118.314 438.893 117.8 438.064C116.41 436.197 116.882 433.232 117.345 431.96L125.737 420.268L124.38 419.589L124.509 419.186C124.093 418.25 137.529 383.641 144.412 366.506C155.524 343.787 154.248 335.167 152.162 333.735C145.028 324.545 136.241 323.608 132.787 324.545L121.273 327.092L110.644 328.974C100.55 328.974 91.3939 333.374 88.1693 335.617C83.455 345.207 88.0727 363.201 91.1585 370.492L96.7296 428.506L94.2129 429.336V433.533C95.0569 435.155 96.7417 439.34 97.2183 443.193C97.6927 447.028 90.6058 449.704 87.4719 450.887L87.4284 450.904C83.4566 457.616 78.6774 461.721 76.3018 462.749C92.2108 464.521 130.814 462.417 147.944 460.94C179.793 458.49 214.297 445.627 227.568 439.502C273.846 409.014 282.548 372.845 281.115 358.572C286.078 280.045 284.024 247.199 282.377 240.591C279.012 203.41 265.272 179.954 258.823 172.874Z" fill="#FB6F57"/>
<path d="M42.1019 310.704H56.1978C47.3953 319.42 51.7365 337.526 54.8521 345.551L76.2951 429.028L78.9809 429.504V433.533C77.6706 434.822 74.7555 437.848 73.578 439.642C72.4004 441.437 69.6893 444.485 68.0539 445.887C66.6988 446.168 63.7658 447.726 60.6257 450.904C57.4856 454.081 56.6382 457.858 57.2924 459.348H56.5703L56.5659 459.348C54.5905 459.083 43.6817 457.619 30.7405 449.608C17.7898 441.591 8.72773 426.796 5.81552 420.4C1.62975 412.8 -3.20882 390.807 8.2722 363.898C19.7532 336.99 35.6091 317.223 42.1019 310.704Z" fill="#FB6F57"/>
<path d="M182.418 260.568L182.815 243.712C183.198 245.681 184.187 250.24 185.075 252.715C185.964 255.19 183.674 258.981 182.418 260.568Z" fill="#FB6F57"/>
<path d="M182.972 119.726V23.9585C219.086 24.0381 291.339 24.1973 291.441 24.1973C291.543 24.1973 291.483 76.8116 291.441 103.119H199.911L182.972 119.726Z" fill="#1537EB"/>
<circle cx="210.761" cy="66.8048" r="7.97134" fill="white" fill-opacity="0.9"/>
<circle cx="237.235" cy="66.8048" r="7.97134" fill="white" fill-opacity="0.9"/>
<circle cx="265.134" cy="66.8048" r="7.97134" fill="white" fill-opacity="0.9"/>
<path d="M135.553 136.594C134.056 147.311 135.598 150.422 136.536 150.57C148.363 149.783 153.521 148.555 154.599 147.898C161.06 146.559 160.447 153.223 159.819 156.76H163.086C163.548 149.479 165.378 150.311 166.352 151.356C169.323 151.502 168.768 153.916 168.455 155.562L170.698 159.993C173.186 149.634 172.634 138.469 172.047 134.181C170.865 130.674 166.564 130.651 164.561 131.078C147.683 123.627 138.19 131.651 135.553 136.594Z" fill="#434343"/>
<path d="M150.931 181.605C141.173 182.254 137.237 161.173 136.489 150.552C150.81 149.012 154.508 147.902 154.567 147.539C161.22 146.569 161.292 153.137 160.497 156.543H162.972C162.963 155.774 163.399 153.512 163.618 152.478C164.067 149.562 165.755 149.825 166.479 150.398C169.227 150.398 169.355 153.753 169.122 155.423L170.628 160.188L170.067 165.585C168.721 168.276 169.88 180.678 170.628 186.542L178.268 189.626C174.646 196.916 163.117 211.726 148.762 210.829C134.407 209.931 140.686 194.792 145.686 187.48C160.321 184.059 166.118 176.028 166.983 172.594C164.852 176.631 155.394 180.284 150.931 181.605Z" fill="#EEA886"/>
<path d="M151.064 181.291C155.757 179.59 165.262 175.323 167.397 172.131C167.547 171.806 167.68 171.508 167.798 171.244C167.739 171.528 167.602 171.824 167.397 172.131C165.567 176.094 161.161 184.202 151.064 185.943V181.291Z" fill="#A87761"/>
<path d="M94.6805 429.256C89.2723 430.708 82.0428 429.861 79.104 429.256V433.48C87.3061 435.333 92.9059 434.252 94.6805 433.48V429.256Z" fill="#EEA886"/>
<path d="M139.713 424.356C136.423 424.43 129.155 421.496 126.005 419.992L123.783 423.285C125.133 425.544 134.222 428.878 138.508 430.3L139.713 424.356Z" fill="#EEA886"/>
<path d="M100.615 259.986L85.0425 277.533L90.3059 292.071L110.771 270.813C109.764 268.264 103.581 262.533 100.615 259.986Z" fill="#EEA886"/>
<path d="M118.849 286.312L108.656 294.007L112.511 294.614C112.993 295.792 108.469 302.593 107.639 302.968C106.975 303.267 107.683 303.753 108.121 303.958L110.477 305.109C113.668 311.021 119.285 306.002 121.695 302.753C123.022 300.697 124.55 300.13 125.148 300.103C126.54 300.296 130.768 298.913 132.708 298.198L178.002 282.435C177.725 272.732 173.618 268.467 171.599 267.547L135.027 287.573C128.73 285.902 121.618 286.036 118.849 286.312Z" fill="#EEA886"/>
<path d="M153.158 291.223L185.192 296.397C190.825 301.068 195.078 316.366 196.5 323.432C197.02 324.784 191.747 336.626 189.046 342.379C191.064 350.622 158.506 400.751 141.975 424.785C138.047 425.178 128.684 421.501 124.493 419.614C124.181 418.262 140.374 377.142 148.509 356.75C154.678 343.897 154.132 336.828 153.088 334.9C149.232 329.181 142.051 325.656 138.942 324.608L133.005 324.779L113.142 329.153C96.3414 330.742 89.5872 334.847 88.3102 336.7C84.4407 344.776 88.9839 362.674 91.7392 370.613C92.4671 371.341 95.5541 409.539 97.0067 428.547C90.8902 430.97 80.7887 429.887 76.5025 429.043L52.8765 338.899C47.3655 324.862 53.3228 313.552 56.5158 310.436H97.1557L110.423 305.029C110.655 305.476 111.461 306.535 112.137 307.171C112.981 307.965 117.14 308.426 120.516 303.958C123.217 300.384 124.801 299.991 125.215 300.123L127.67 299.765L153.158 291.223Z" fill="#1537EB"/>
<path d="M113.736 290.201L97.3301 295.116L112.361 295.734L112.528 295.082L112.549 294.809L112.528 294.609L108.673 294.023L113.736 290.201Z" fill="#C4C4C4"/>
<path d="M100.463 260.104L108.986 250.634L112.681 233.845C112.615 227.074 115.301 209.802 126.579 194.885C128.769 193.635 135.721 190.31 146.008 187.014C142.516 191.863 136.883 202.891 142.285 208.213C149.037 214.866 164.735 205.971 164.896 205.328C165.057 204.685 175.58 196.974 177.99 189.262C184.55 192.208 198.153 199.834 200.081 206.774C201.59 208.793 204.356 223.263 203.346 264.987C203.513 266.881 203.48 271.126 202.01 272.953L183.431 280.223L185.428 296.386L152.959 291.223L178.303 282.23C178 278.417 176.275 270.116 171.804 267.412L135.246 287.634C131.632 287.019 123.118 285.909 119.064 286.308C123.014 283.382 130.682 276.994 129.928 275.723L129.909 275.601C128.66 267.53 126.199 251.623 125.256 248.851C125.215 248.73 125.177 248.635 125.143 248.566C125.059 250.38 124.602 254.763 123.446 257.784L110.834 270.636C109.254 268.36 104.769 263.189 100.463 260.104Z" fill="#FAFF00"/>
<path d="M74.9634 251.555L0.989258 252.548L22.7222 310.434H97.0683L91.3238 295.133L74.9634 251.555Z" fill="#FF8500" stroke="#FF8500" stroke-width="0.5"/>
<path d="M112.37 295.702L91.5635 295.152L97.2723 310.334L110.51 305.156C109.804 304.993 108.131 303.883 107.337 303.314C108.927 302.637 111.355 297.957 112.37 295.702Z" fill="#E90000"/>
<path d="M91.4072 295.171L112.4 295.703M97.2059 310.52L110.511 305.178" stroke="#FF8500" stroke-width="0.5"/>
</svg>
