<svg width="481" height="486" viewBox="0 0 481 486" fill="none" xmlns="http://www.w3.org/2000/svg">
<path d="M322.222 302.577V363.956L311.214 367.942L311.213 301.519L322.222 302.577Z" fill="#0065FF" stroke="#0065FF"/>
<path d="M457.778 1.68726L457.774 316.55L469.099 317.316C474.874 317.707 479.774 313.128 479.774 307.339V12.129C479.774 6.74722 475.515 2.33066 470.136 2.13557L457.778 1.68726Z" fill="#0065FF" stroke="#0065FF"/>
<path d="M117.728 274.024V37.7146C117.728 35.135 119.69 32.9788 122.259 32.7366L456.789 1.19518C462.657 0.641948 467.728 5.25738 467.728 11.151V307.023C467.728 312.971 462.566 317.605 456.652 316.964L310.728 301.164V368.664L228.728 358.664V293.164L126.831 283.984C121.676 283.52 117.728 279.199 117.728 274.024Z" fill="#6BD5E5"/>
<path d="M450.228 16.6638L128.728 41.6638V254.164L450.228 279.164V16.6638Z" fill="white"/>
<path d="M387.299 290.399L335.673 287.833C337.794 308.661 337.833 320.34 336.533 341.176L387.299 348.058C390.312 325.541 390.532 312.916 387.299 290.399Z" fill="#FFC401" stroke="#FFC401"/>
<path d="M310.73 301.167L228.726 293.163L228.73 358.663L310.73 368.671V301.167Z" fill="#3AC1D5"/>
<path d="M93.5796 396.44L0.0146484 432.672L205.226 481.751L298.751 437.097L104.011 397.828C98.821 396.44 95.0207 396.295 93.5796 396.44Z" fill="#E5E8EC"/>
<path d="M205.232 481.75L0.03125 432.687V435.036V436.998L205.232 485.924L298.733 441.058V437.115L205.232 481.75Z" fill="#0B6CFF"/>
<path d="M28.126 433.705L17.5745 431.192C16.623 430.965 16.5291 429.649 17.4388 429.289L36.6152 421.715C36.8027 421.641 37.0082 421.625 37.2048 421.67L47.195 423.947C48.143 424.163 48.2563 425.467 47.3597 425.844L28.7445 433.654C28.5489 433.736 28.3323 433.754 28.126 433.705Z" fill="white"/>
<path d="M92.4684 399.827L102.626 401.896C103.595 402.093 103.72 403.427 102.804 403.801L84.2712 411.38C84.0854 411.456 83.8809 411.474 83.6845 411.432L73.2576 409.212C72.2889 409.006 72.1773 407.668 73.0985 407.304L91.9015 399.877C92.0816 399.806 92.2786 399.788 92.4684 399.827Z" fill="white"/>
<path d="M227.133 466.781L207.62 476.219C207.413 476.319 207.177 476.345 206.953 476.292L194.196 473.254C193.307 473.042 193.144 471.846 193.945 471.405L211.6 461.675C211.815 461.556 212.066 461.521 212.305 461.576L226.919 464.906C227.841 465.116 227.984 466.37 227.133 466.781Z" fill="white"/>
<path d="M45.6018 418.165L65.204 410.422C65.3883 410.349 65.59 410.333 65.7837 410.375L76.1484 412.627C77.1133 412.837 77.2228 414.169 76.305 414.534L56.6477 422.338C56.4608 422.412 56.256 422.428 56.0598 422.384L45.7502 420.071C44.7893 419.855 44.6858 418.527 45.6018 418.165Z" fill="white"/>
<path d="M254.98 453.312L235.937 462.523C235.734 462.621 235.503 462.648 235.283 462.598L201.724 455.068C200.801 454.861 200.655 453.608 201.505 453.194L220.104 444.125C220.306 444.027 220.535 443.999 220.755 444.047L254.757 451.435C255.686 451.637 255.836 452.899 254.98 453.312Z" fill="white"/>
<path d="M281.977 440.255L263.052 449.408C262.852 449.505 262.626 449.532 262.409 449.486L250.791 447.012C249.886 446.82 249.705 445.608 250.514 445.16L267.534 435.726C267.743 435.611 267.985 435.573 268.219 435.621L281.741 438.375C282.679 438.566 282.839 439.838 281.977 440.255Z" fill="white"/>
<path d="M121.948 437.168L133.837 439.836C134.052 439.884 134.277 439.86 134.476 439.768L153.053 431.177C153.923 430.774 153.783 429.495 152.845 429.292L140.749 426.664C140.536 426.617 140.313 426.642 140.115 426.734L121.745 435.286C120.88 435.689 121.017 436.959 121.948 437.168Z" fill="white"/>
<path d="M168.654 415.343L179.129 417.477C180.07 417.668 180.226 418.947 179.359 419.36L161.59 427.809C161.392 427.904 161.168 427.93 160.953 427.884L149.005 425.34C148.046 425.136 147.923 423.817 148.828 423.439L168.069 415.4C168.254 415.323 168.457 415.303 168.654 415.343Z" fill="white"/>
<path d="M141.684 441.597L153.841 444.324C154.057 444.373 154.283 444.348 154.484 444.254L173.099 435.529C173.965 435.123 173.822 433.85 172.887 433.646L159.813 430.806C159.591 430.757 159.358 430.787 159.154 430.888L141.456 439.726C140.614 440.146 140.766 441.391 141.684 441.597Z" fill="white"/>
<path d="M161.294 445.997L173.785 448.799C174.001 448.848 174.228 448.823 174.428 448.729L193.23 439.903C194.096 439.496 193.952 438.223 193.017 438.02L179.777 435.144C179.556 435.096 179.326 435.124 179.123 435.224L161.071 444.124C160.225 444.541 160.374 445.79 161.294 445.997Z" fill="white"/>
<path d="M206.643 423.08L218.995 425.596C219.934 425.787 220.092 427.062 219.228 427.477L201.048 436.208C200.848 436.304 200.623 436.331 200.406 436.285L187.63 433.564C186.688 433.364 186.546 432.078 187.422 431.677L206.026 423.151C206.219 423.062 206.435 423.038 206.643 423.08Z" fill="white"/>
<path d="M181.228 450.47L193.931 453.32C194.151 453.369 194.382 453.343 194.586 453.244L213.184 444.23C214.039 443.816 213.888 442.555 212.96 442.353L200.001 439.538C199.781 439.49 199.551 439.518 199.349 439.617L181.007 448.596C180.159 449.011 180.306 450.263 181.228 450.47Z" fill="white"/>
<path d="M227.348 427.297L239.781 429.829C240.719 430.02 240.878 431.294 240.015 431.71L221.603 440.584C221.403 440.68 221.177 440.707 220.96 440.661L208.073 437.917C207.132 437.717 206.99 436.432 207.864 436.03L226.731 427.368C226.924 427.279 227.14 427.255 227.348 427.297Z" fill="white"/>
<path d="M248.133 431.53L260.087 433.965C260.997 434.15 261.184 435.369 260.371 435.819L243.436 445.196C243.225 445.312 242.979 445.349 242.743 445.299L228.939 442.36C228.003 442.16 227.855 440.886 228.72 440.477L247.506 431.606C247.701 431.513 247.921 431.487 248.133 431.53Z" fill="white"/>
<path d="M164.346 452.456L145.907 461.518C145.699 461.621 145.461 461.648 145.234 461.594L72.3997 444.248L66.8331 442.923L55.0017 440.105C54.0596 439.881 53.9546 438.582 54.8483 438.209L74.3949 430.055C74.5875 429.975 74.8004 429.957 75.0039 430.004L86.4902 432.644C87.4354 432.861 87.549 434.161 86.6557 434.539L66.8331 442.923L72.3997 444.248L94.3997 434.598C94.5973 434.511 94.8175 434.491 95.0276 434.54L164.131 450.585C165.047 450.798 165.19 452.042 164.346 452.456Z" fill="white"/>
<path d="M171.352 452.468L152.652 461.536C151.806 461.946 151.942 463.191 152.857 463.409L165.43 466.403C165.66 466.458 165.902 466.43 166.113 466.323L184.477 457.049C185.313 456.627 185.162 455.39 184.248 455.181L172.011 452.392C171.789 452.342 171.557 452.368 171.352 452.468Z" fill="white"/>
<path d="M191.345 457.058L173.937 466.64C173.136 467.081 173.298 468.277 174.188 468.489L186.581 471.44C186.821 471.497 187.074 471.464 187.291 471.345L204.978 461.7C205.787 461.259 205.62 460.052 204.722 459.847L192.05 456.959C191.811 456.905 191.56 456.94 191.345 457.058Z" fill="white"/>
<path d="M47.5629 438.334L36.1478 435.615C35.2039 435.39 35.101 434.088 35.9979 433.718L54.7199 425.99C54.9095 425.912 55.1185 425.894 55.3187 425.938L66.9302 428.522C67.8835 428.734 67.9986 430.047 67.0968 430.421L48.1784 438.284C47.9835 438.365 47.7681 438.383 47.5629 438.334Z" fill="white"/>
<path d="M109.943 403.386L121.68 405.776C122.643 405.972 122.775 407.295 121.869 407.677L103.457 415.458C103.268 415.538 103.059 415.557 102.859 415.515L91.7295 413.145C90.7792 412.943 90.6465 411.641 91.5364 411.251L109.342 403.45C109.531 403.367 109.741 403.345 109.943 403.386Z" fill="white"/>
<path d="M129.323 407.333L140.752 409.661C141.718 409.857 141.847 411.184 140.937 411.564L122.075 419.425C121.887 419.503 121.68 419.522 121.482 419.48L110.698 417.184C109.746 416.981 109.616 415.675 110.509 415.288L128.726 407.395C128.914 407.314 129.123 407.292 129.323 407.333Z" fill="white"/>
<path d="M102.663 432.841L113.902 435.363C114.111 435.41 114.33 435.388 114.526 435.301L133.411 426.918C134.295 426.526 134.162 425.232 133.217 425.027L120.933 422.358C120.716 422.311 120.49 422.337 120.289 422.433L102.451 430.963C101.595 431.373 101.737 432.633 102.663 432.841Z" fill="white"/>
<path d="M147.786 411.093L159.845 413.549C160.801 413.744 160.941 415.051 160.049 415.444L141.595 423.569C141.403 423.654 141.189 423.676 140.984 423.632L129.019 421.085C128.069 420.882 127.936 419.58 128.827 419.191L147.185 411.157C147.374 411.074 147.584 411.052 147.786 411.093Z" fill="white"/>
<path d="M82.8144 414.27L64.2699 422.375C63.3844 422.762 63.5085 424.055 64.4515 424.267L75.1155 426.66C75.3144 426.704 75.5222 426.687 75.711 426.611L95.2882 418.654C96.1991 418.284 96.0848 416.959 95.124 416.75L83.4273 414.209C83.2217 414.164 83.0072 414.185 82.8144 414.27Z" fill="white"/>
<path d="M102.117 418.458L83.0355 426.58C82.1417 426.96 82.2604 428.263 83.2082 428.476L94.3807 430.983C94.5906 431.03 94.8101 431.008 95.0067 430.92L113.633 422.62C114.516 422.227 114.383 420.935 113.438 420.729L102.72 418.401C102.518 418.357 102.307 418.377 102.117 418.458Z" fill="white"/>
<path d="M186.657 419.208L168.412 427.631C167.539 428.034 167.682 429.317 168.623 429.517L180.383 432.021C180.597 432.067 180.821 432.041 181.02 431.946L199.067 423.374C199.935 422.961 199.779 421.682 198.837 421.49L187.275 419.136C187.067 419.093 186.85 419.118 186.657 419.208Z" fill="white"/>
<path d="M292.945 472.144L289.328 473.423C289.328 475.328 286.533 476.964 285.02 477.428C284.896 477.457 284.77 477.49 284.643 477.525C284.756 477.503 284.883 477.471 285.02 477.428C288.045 476.724 290.131 477.98 290.639 478.511L294.443 477.829C295.095 476.273 295.707 472.957 292.945 472.144Z" fill="#EFEFEF"/>
<path d="M292.945 472.144L289.328 473.423C289.328 475.501 286.002 477.259 284.643 477.525C287.871 476.62 290.111 477.958 290.639 478.511L294.443 477.829C295.095 476.273 295.707 472.957 292.945 472.144Z" stroke="black" stroke-width="0.1"/>
<path d="M319.077 467.884C318.633 464.92 316.604 463.398 315.645 463.007L313.123 463.824C313.103 463.83 313.085 463.836 313.067 463.842L313.123 463.824C313.581 463.691 314.642 463.734 315.645 464.89C316.691 466.095 317.13 467.6 317.219 468.201C317.821 472.592 316.468 474.341 315.717 474.667L317.817 474.173C319.002 473.219 319.632 471.589 319.077 467.884Z" fill="#D1D1D1"/>
<path d="M364.836 459.52C367.488 455.26 364.78 453.256 363.095 452.786L315.642 463.007C316.653 463.3 318.778 464.882 319.186 468.867C319.557 472.495 318.472 473.87 317.726 474.191L317.517 474.256C317.583 474.244 317.653 474.222 317.726 474.191L364.836 459.52Z" fill="black"/>
<path d="M358.779 456.322C358.334 455.052 357.22 454.369 356.719 454.186L356.304 454.317C357.468 454.822 358.211 455.979 358.436 456.495C358.572 457.024 358.85 458.318 358.872 459.263C358.894 460.207 358.189 461.271 357.834 461.685L358.381 461.512C358.702 461.25 359.332 460.435 359.28 459.263C359.215 457.797 359.336 457.909 358.779 456.322Z" fill="#D1D1D1"/>
<path d="M312.531 464.616L313.139 463.822C314.401 463.538 315.563 464.71 315.987 465.332C317.093 467.229 317.348 468.888 317.337 469.481C317.697 471.852 316.572 474.667 315.732 474.684C315.06 474.697 314.7 474.376 314.605 474.214L315.267 473.614C316.011 472.534 316.057 470.76 315.987 470.008C315.942 469.333 315.669 467.663 314.937 466.386C314.205 465.108 313.028 464.673 312.531 464.616Z" fill="#C4C4C4"/>
<path d="M292.984 472.107L312.53 464.629C313.478 464.629 314.426 465.615 314.793 466.095C315.189 466.788 316.005 468.675 316.005 470.785C316.005 472.895 315.079 473.948 314.616 474.211L294.424 477.863C295.987 473.89 294.115 472.371 292.984 472.107Z" fill="black"/>
<path d="M207.544 182.664C207.544 188.695 207.909 193.433 208.64 196.879C209.371 200.182 210.141 201.833 210.95 201.833C211.785 201.833 212.555 200.54 213.26 197.956C213.991 195.228 214.578 193.864 215.022 193.864C215.805 193.864 216.757 197.669 217.879 205.279C218.48 209.443 218.78 213.176 218.78 216.478C218.78 221.934 218.062 227.032 216.627 231.77C215.139 237.513 213.312 240.385 211.146 240.385C208.718 240.385 206.383 235.575 204.138 225.955C203.068 221.36 202.194 215.258 201.515 207.648C200.836 199.894 200.497 191.423 200.497 182.234C200.497 172.901 200.836 164.501 201.515 157.035C202.194 149.425 203.068 143.322 204.138 138.728C206.304 129.251 208.614 124.513 211.067 124.513C212.059 124.513 213.025 125.303 213.964 126.882C214.904 128.318 215.596 129.754 216.039 131.19L216.666 133.343C217.136 135.066 217.501 136.43 217.762 137.436C218.441 140.307 218.78 143.61 218.78 147.343C218.78 150.932 218.506 155.025 217.958 159.619C217.018 167.516 216.118 171.465 215.256 171.465C214.761 171.465 214.056 169.885 213.142 166.727C212.673 164.286 211.994 163.065 211.107 163.065C210.245 163.065 209.436 164.788 208.679 168.234C207.922 171.68 207.544 176.49 207.544 182.664Z" fill="white"/>
<path d="M220.722 182.664C220.722 165.434 221.818 151.22 224.01 140.02C226.203 128.821 228.708 123.221 231.527 123.221C234.346 123.221 236.838 128.821 239.005 140.02C241.171 151.076 242.254 165.219 242.254 182.449C242.254 194.366 241.693 204.992 240.571 214.325C239.448 223.514 238.078 230.334 236.46 234.785C234.868 239.093 233.21 241.246 231.488 241.246C229.765 241.246 228.095 238.949 226.477 234.354C224.859 229.616 223.488 222.724 222.366 213.678C221.27 204.489 220.722 194.151 220.722 182.664ZM228.904 198.171C229.739 201.617 230.587 203.34 231.449 203.34C232.31 203.34 233.171 201.546 234.033 197.956C234.894 194.366 235.325 189.054 235.325 182.018C235.325 174.983 234.92 169.742 234.111 166.296C233.302 162.85 232.427 161.127 231.488 161.127C230.548 161.127 229.674 162.922 228.865 166.511C228.056 170.101 227.651 175.413 227.651 182.449C227.651 189.341 228.069 194.582 228.904 198.171Z" fill="white"/>
<path d="M258.603 78.6381C258.812 76.4844 259.164 74.9768 259.66 74.1153C260.156 73.2538 260.809 72.823 261.618 72.823C262.453 72.823 263.118 73.2538 263.614 74.1153C264.11 74.9768 264.45 76.4844 264.632 78.6381C264.841 80.7919 264.958 82.7303 264.985 84.4533C265.037 86.0327 265.063 88.4736 265.063 91.776V220.355C265.063 223.657 265.037 226.17 264.985 227.893C264.958 229.473 264.841 231.267 264.632 233.278C264.241 237.154 263.131 239.093 261.304 239.093C259.504 239.093 258.499 235.575 258.29 228.539C257.194 235.431 255.667 238.877 253.709 238.877C251.361 238.877 249.22 233.278 247.289 222.078C245.358 210.735 244.392 197.597 244.392 182.664C244.392 167.588 245.358 154.378 247.289 143.035C249.246 131.692 251.387 126.021 253.709 126.021C255.641 126.021 257.142 129.61 258.212 136.789V91.5606C258.212 88.2582 258.225 85.8173 258.251 84.2379C258.303 82.5149 258.42 80.6483 258.603 78.6381ZM252.261 195.587C252.94 199.464 253.762 201.402 254.727 201.402C255.693 201.402 256.489 199.464 257.115 195.587C257.768 191.71 258.094 187.474 258.094 182.88C258.094 178.141 257.781 173.762 257.155 169.742C256.554 165.721 255.732 163.711 254.688 163.711C253.644 163.711 252.809 165.721 252.183 169.742C251.556 173.619 251.243 177.926 251.243 182.664C251.243 187.403 251.582 191.71 252.261 195.587Z" fill="white"/>
<path d="M275.111 207.432H285.759C286.621 207.432 287.247 208.007 287.639 209.156C288.03 210.161 288.291 211.812 288.422 214.109C288.552 216.406 288.617 219.494 288.617 223.37C288.617 227.103 288.552 230.119 288.422 232.416C288.291 234.713 288.069 236.293 287.756 237.154C287.26 238.59 286.582 239.308 285.72 239.308H271.627C269.8 239.308 268.729 236.58 268.416 231.124C268.26 228.826 268.181 225.165 268.181 220.14V100.391C268.181 97.0886 268.194 94.6477 268.22 93.0683C268.273 91.3453 268.403 89.4069 268.612 87.2531C268.977 83.3764 269.995 81.438 271.666 81.438C273.493 81.438 274.576 84.0943 274.915 89.4069C275.046 91.8478 275.111 95.581 275.111 100.606V207.432Z" fill="white"/>
<path d="M291.159 144.758C291.159 141.456 291.172 139.015 291.198 137.436C291.25 135.713 291.368 133.774 291.55 131.62C291.916 127.887 292.934 126.021 294.604 126.021C295.857 126.021 296.744 127.241 297.266 129.682C297.71 131.692 297.945 134.779 297.971 138.943C297.997 140.379 298.01 142.461 298.01 145.189V220.57C298.01 223.873 297.984 226.386 297.932 228.109C297.906 229.688 297.788 231.555 297.579 233.708C297.24 237.441 296.235 239.308 294.565 239.308C292.92 239.308 291.916 237.37 291.55 233.493C291.368 231.339 291.25 229.473 291.198 227.893C291.172 226.314 291.159 223.801 291.159 220.355V144.758ZM297.579 104.914C297.397 106.924 297.057 108.36 296.561 109.221C296.065 110.083 295.4 110.514 294.565 110.514C293.756 110.514 293.103 110.083 292.607 109.221C292.111 108.36 291.759 106.852 291.55 104.699C291.368 102.545 291.25 100.678 291.198 99.0988C291.172 97.3758 291.159 94.8631 291.159 91.5606C291.159 88.2582 291.172 85.8173 291.198 84.2379C291.25 82.5149 291.368 80.6483 291.55 78.6381C291.916 74.7614 292.934 72.823 294.604 72.823C296.248 72.823 297.24 74.7614 297.579 78.6381C297.788 80.7919 297.906 82.7303 297.932 84.4533C297.984 86.0327 298.01 88.4736 298.01 91.776C298.01 95.0784 297.984 97.5911 297.932 99.3142C297.906 100.894 297.788 102.76 297.579 104.914Z" fill="white"/>
<path d="M313.117 163.927L310.572 163.065V192.787C310.572 196.664 310.677 199.464 310.885 201.187C311.12 202.91 311.538 203.771 312.138 203.771C312.765 203.771 313.234 203.915 313.548 204.202C313.887 204.345 314.239 204.992 314.605 206.14C315.205 208.007 315.505 212.817 315.505 220.57C315.505 229.616 315.14 235.144 314.409 237.154C314.017 238.159 313.665 238.805 313.352 239.093C313.065 239.236 312.634 239.308 312.06 239.308C309.346 239.308 307.284 235.934 305.874 229.185C304.465 222.437 303.76 211.022 303.76 194.941V163.065C303.264 163.496 302.729 163.711 302.155 163.711C301.581 163.711 301.098 162.491 300.707 160.05C300.341 157.609 300.159 153.445 300.159 147.558C300.159 141.671 300.224 137.436 300.354 134.851C300.485 132.123 300.667 130.185 300.902 129.036C301.32 127.169 301.842 126.236 302.468 126.236L303.76 127.098V104.914C303.76 101.611 303.773 99.1706 303.799 97.5911C303.852 96.0117 303.982 94.2887 304.191 92.4221C304.53 88.8326 305.535 87.0378 307.205 87.0378C308.98 87.0378 310.037 89.6941 310.377 95.0067C310.507 97.304 310.572 100.965 310.572 105.991V127.098C311.721 126.523 312.582 126.236 313.156 126.236C313.756 126.236 314.2 126.38 314.487 126.667C314.8 126.81 315.153 127.457 315.544 128.605C316.223 130.472 316.562 136 316.562 145.189C316.562 154.235 316.21 159.763 315.505 161.773C315.114 162.778 314.761 163.424 314.448 163.711C314.161 163.855 313.717 163.927 313.117 163.927Z" fill="white"/>
<path d="M337.847 169.096C337.847 177.854 337.443 184.387 336.634 188.695C335.851 192.859 334.976 194.941 334.011 194.941H324.732C324.732 198.961 325.163 202.335 326.024 205.063C326.885 207.791 327.747 209.156 328.608 209.156C330.122 209.156 331.309 208.294 332.171 206.571L332.601 205.71C333.228 204.13 333.75 203.34 334.167 203.34C335.002 203.34 335.72 206.571 336.32 213.032C336.66 216.909 336.829 220.211 336.829 222.94C336.829 235.718 334.05 242.108 328.491 242.108C326.559 242.108 324.837 240.313 323.323 236.724C321.835 232.99 320.674 228.109 319.838 222.078C318.194 210.448 317.372 197.453 317.372 183.095C317.372 165.004 318.429 150.573 320.543 139.805C322.683 128.892 325.346 123.436 328.53 123.436C332.158 123.436 334.82 130.472 336.516 144.543C337.404 152.009 337.847 160.194 337.847 169.096ZM329.587 175.342C330.579 175.342 331.074 173.044 331.074 168.45C331.074 165.147 330.839 162.491 330.37 160.481C329.926 158.471 329.274 157.465 328.412 157.465C327.577 157.465 326.742 159.404 325.907 163.281C325.071 167.014 324.654 171.034 324.654 175.342H329.587Z" fill="white"/>
<path d="M346.47 203.771C346.913 206.212 347.135 211.237 347.135 218.847V219.709C347.135 223.155 347.109 225.739 347.057 227.462C347.031 229.042 346.9 230.98 346.665 233.278C346.274 237.441 345.282 239.523 343.69 239.523C342.124 239.523 341.08 238.159 340.558 235.431C340.062 232.703 339.814 227.534 339.814 219.924V219.063C339.814 215.76 339.827 213.248 339.853 211.525C339.906 209.802 340.036 207.863 340.245 205.71C340.636 201.402 341.615 199.248 343.181 199.248C344.773 199.248 345.869 200.756 346.47 203.771Z" fill="white"/>
<path d="M220.722 182.664C220.722 165.434 221.818 151.22 224.01 140.02C226.203 128.821 228.708 123.221 231.527 123.221C234.346 123.221 236.838 128.821 239.005 140.02C241.171 151.076 242.254 165.219 242.254 182.449C242.254 194.366 241.693 204.992 240.571 214.325C239.448 223.514 238.078 230.334 236.46 234.785C234.868 239.093 233.21 241.246 231.488 241.246C229.765 241.246 228.095 238.949 226.477 234.354C224.859 229.616 223.488 222.724 222.366 213.678C221.27 204.489 220.722 194.151 220.722 182.664ZM228.904 198.171C229.739 201.617 230.587 203.34 231.449 203.34C232.31 203.34 233.171 201.546 234.033 197.956C234.894 194.366 235.325 189.054 235.325 182.018C235.325 174.983 234.92 169.742 234.111 166.296C233.302 162.85 232.427 161.127 231.488 161.127C230.548 161.127 229.674 162.922 228.865 166.511C228.056 170.101 227.651 175.413 227.651 182.449C227.651 189.341 228.069 194.582 228.904 198.171Z" fill="white"/>
<path d="M450.13 16.6638L128.63 41.6638V254.164L450.13 279.164V16.6638Z" fill="white"/>
<path d="M128.63 67.7419V41.6926L450.228 16.6638V48.7136L128.63 67.7419Z" fill="#FFE640"/>
<path d="M194.549 254.864V66.9725L273.79 62.4454L353.085 57.9023V266.657L194.549 254.864Z" fill="#B2E6F3"/>
<path d="M442.833 151.398L358.938 151.273V141.944L428.202 141.711V78.7586V66.4333L442.833 65.7063V78.7586V151.398Z" fill="#C4C4C4"/>
<path d="M425.186 66.9458L341.476 73.4642L341.438 139.552L425.186 139.01V66.9458Z" fill="#99C1FF"/>
<path d="M442.833 273.309L359.088 267.084L359.088 187.976L442.833 190.047V273.309Z" fill="#99C1FF"/>
<path d="M359.084 178.683V160.867L443.036 161.515V180.261L359.084 178.683Z" fill="#B2E6F3"/>
<path d="M191.951 67.2458L137.034 70.3826V250.406L191.951 254.488V67.2458Z" fill="#CCE0FF"/>
<path d="M137.301 70.5293L191.705 254.358M191.709 67.4551L137.28 250.25" stroke="#99C1FF" stroke-width="0.5"/>
<path d="M425.187 70.8708L341.438 74.8006V60.9334L425.187 56.2732V70.8708Z" fill="#5D9AFA"/>
<ellipse cx="140.118" cy="53.6774" rx="3.08414" ry="3.89004" fill="#FF7143"/>
<ellipse cx="147.574" cy="53.0768" rx="3.08414" ry="3.89004" fill="#C4C4C4"/>
<ellipse cx="155.229" cy="52.5202" rx="3.08414" ry="3.89004" fill="#0065FF"/>
<path d="M229.369 163.559C229.369 165.244 229.614 166.568 230.104 167.53C230.594 168.453 231.111 168.915 231.653 168.915C232.213 168.915 232.73 168.553 233.202 167.831C233.693 167.069 234.086 166.688 234.384 166.688C234.909 166.688 235.548 167.751 236.301 169.877C236.703 171.041 236.905 172.363 236.905 173.286C236.905 174.811 236.423 176.235 235.461 177.559C234.463 179.164 233.144 179.845 231.714 179.805C230.082 179.759 228.59 178.622 227.084 175.934C226.367 174.65 225.78 172.666 225.325 170.539C224.87 168.373 224.643 166.006 224.643 163.438C224.643 160.83 224.873 158.911 225.328 156.825C225.783 154.698 226.37 152.993 227.087 151.709C228.54 149.061 230.113 147.896 231.758 147.896C232.423 147.896 233.048 147.958 233.678 148.399C234.308 148.801 234.772 149.202 235.069 149.603L235.49 150.205C235.805 150.686 236.05 151.067 236.225 151.348C236.68 152.151 236.907 153.073 236.907 154.117C236.907 155.12 236.721 155.835 236.353 157.119C235.723 159.326 235.119 159.87 234.542 159.87C234.209 159.87 233.736 159.988 233.124 159.105C232.809 158.423 232.353 158.082 231.758 158.082C231.181 158.082 230.638 158.564 230.13 159.526C229.623 160.489 229.369 161.833 229.369 163.559Z" fill="white"/>
<path d="M238.207 163.838C238.207 159.024 238.942 154.772 240.413 151.643C241.883 148.513 243.514 147.896 245.405 147.896C247.295 147.896 249.016 148.513 250.469 151.643C251.922 154.732 252.649 158.963 252.649 163.778C252.649 167.108 252.272 170.077 251.519 172.684C250.767 175.252 249.848 177.158 248.762 178.401C247.695 179.605 246.584 180.201 245.437 180.168C244.289 180.136 243.152 179.565 242.067 178.281C240.982 176.957 240.063 175.031 239.31 172.504C238.575 169.936 238.207 167.048 238.207 163.838ZM243.695 168.171C244.255 169.134 244.824 169.615 245.402 169.615C245.979 169.615 246.557 169.114 247.134 168.111C247.712 167.108 247.978 165.965 247.978 164C247.978 162.034 247.707 160.569 247.164 159.606C246.622 158.643 246.029 158.162 245.405 158.162C244.781 158.162 244.188 158.664 243.646 159.667C243.103 160.67 242.832 162.154 242.832 164.12C242.832 166.046 243.135 167.168 243.695 168.171Z" fill="white"/>
<path d="M263.609 134.65C263.749 134.048 263.985 133.627 264.318 133.386C264.65 133.146 265.064 133.037 265.631 133.025C266.168 133.015 266.637 133.146 266.97 133.386C267.302 133.627 267.53 134.048 267.652 134.65C267.792 135.252 267.876 135.832 267.894 136.313C267.929 136.754 267.946 137.437 267.946 138.359V174.09C267.946 175.013 267.929 175.715 267.894 176.196C267.876 176.638 267.797 177.139 267.657 177.701C267.395 178.784 266.644 180.728 265.421 180.698C264.15 180.666 263.544 178.343 263.404 176.377C262.668 178.303 261.329 180.553 260.016 180.553C258.431 180.502 257.321 177.701 256.025 174.571C254.73 171.402 254.082 167.731 254.082 163.559C254.082 159.346 254.73 156.175 256.025 153.006C257.338 149.836 258.742 147.813 260.3 147.813C261.595 147.813 262.633 149.255 263.351 151.261V138.299C263.351 137.376 263.36 136.694 263.377 136.253C263.412 135.772 263.486 135.212 263.609 134.65ZM259.36 167.169C259.815 168.253 260.367 168.794 261.014 168.794C261.662 168.794 262.196 168.253 262.616 167.169C263.054 166.086 263.272 164.903 263.272 163.619C263.272 162.295 263.062 161.071 262.642 159.948C262.24 158.824 261.688 158.263 260.988 158.263C260.288 158.263 259.728 158.824 259.308 159.948C258.887 161.031 258.677 162.235 258.677 163.559C258.677 164.882 258.905 166.086 259.36 167.169Z" fill="white"/>
<path d="M274.685 170.479H281.827C282.405 170.479 282.825 170.64 283.088 170.961C283.35 171.241 283.525 171.703 283.613 172.345C283.7 172.987 283.744 173.849 283.744 174.933C283.744 175.976 283.7 178.495 283.613 179.137C283.525 179.779 283.376 180.22 283.166 180.461C282.834 180.862 282.359 181.131 281.781 181.131L272.346 180.881C271.086 180.842 270.405 180.3 270.195 178.776C270.09 178.134 270.038 175.434 270.038 174.03V138.239C270.038 137.316 270.046 136.634 270.064 136.193C270.099 135.711 270.187 135.17 270.327 134.568C270.572 133.485 271.244 132.97 272.375 132.943C273.585 132.915 274.326 133.685 274.554 135.17C274.641 135.852 274.685 136.895 274.685 138.299V170.479Z" fill="white"/>
<path d="M285.448 152.967C285.448 152.044 285.431 151.971 285.448 151.53C285.483 151.048 285.566 149.868 285.689 149.266C285.934 148.223 286.616 147.701 287.737 147.701C288.572 147.701 289.172 148.042 289.522 148.724C289.82 149.286 289.977 150.149 289.995 151.312C290.012 151.713 290.043 152.325 290.043 153.087V174.15C290.043 175.073 290.026 175.775 289.991 176.256C289.973 176.698 289.895 179.175 289.755 179.777C289.527 180.82 288.836 181.313 287.74 181.292C286.644 181.27 285.956 180.8 285.711 179.717C285.588 179.115 285.51 176.638 285.475 176.196C285.457 175.755 285.448 175.053 285.448 174.09V152.967ZM289.755 141.834C289.632 142.395 289.404 142.796 289.072 143.037C288.739 143.278 288.293 143.398 287.733 143.398C287.19 143.398 286.753 143.278 286.42 143.037C286.087 142.796 285.851 142.375 285.711 141.773C285.588 141.172 285.51 140.65 285.475 140.209C285.457 139.727 285.453 138.928 285.453 138.005C285.453 137.082 285.462 136.4 285.479 135.959C285.514 135.477 285.593 134.956 285.716 134.394C285.961 133.311 286.659 132.798 287.764 132.769C288.868 132.741 289.532 133.311 289.759 134.394C289.899 134.996 289.978 135.538 289.996 136.019C290.031 136.46 290.048 137.142 290.048 138.065C290.048 138.988 290.026 139.787 289.991 140.269C289.973 140.71 289.895 141.232 289.755 141.834Z" fill="white"/>
<path d="M300.176 160.558L298.469 160.317V168.622C298.469 169.706 298.539 170.488 298.679 170.969C298.836 171.451 299.117 171.692 299.519 171.692C299.939 171.692 300.254 171.732 300.464 171.812C300.692 171.852 300.928 172.033 301.173 172.353C301.576 172.875 301.777 174.219 301.777 176.386C301.777 178.913 301.532 180.458 301.042 181.019C300.78 181.3 300.669 181.48 300.297 181.619C300.031 181.619 299.859 181.604 299.474 181.604C297.629 181.556 296.263 180.678 295.318 178.793C294.373 176.907 293.9 173.718 293.9 169.224V160.317C293.568 160.438 293.209 160.498 292.824 160.498C292.438 160.498 292.115 160.157 291.852 159.475C291.607 158.793 291.484 157.629 291.484 155.985C291.484 154.34 291.528 153.156 291.616 152.434C291.703 151.672 291.826 151.13 291.983 150.809C292.263 150.287 292.538 150.061 292.959 150.061L293.9 150.267V144.069C293.9 143.146 293.909 142.464 293.926 142.023C293.961 141.581 294.049 141.1 294.189 140.578C294.417 139.575 295.09 139.074 296.211 139.074C297.401 139.074 298.11 139.816 298.338 141.301C298.425 141.942 298.469 142.966 298.469 144.37V150.267C299.239 150.107 299.828 150.035 300.213 150.035C300.616 150.035 300.902 150.067 301.095 150.147C301.305 150.187 301.541 150.368 301.804 150.689C302.259 151.21 302.486 152.755 302.486 155.323C302.486 157.85 302.25 159.395 301.777 159.956C301.515 160.237 301.278 160.418 301.068 160.498C300.876 160.538 300.578 160.558 300.176 160.558Z" fill="white"/>
<path d="M316.762 161.444C316.762 163.891 316.491 165.716 315.948 166.92C315.423 168.084 314.836 168.665 314.189 168.665H307.966C307.966 169.789 308.255 170.731 308.832 171.494C309.41 172.256 309.988 172.637 310.565 172.637C311.581 172.637 312.377 172.396 312.955 171.915L313.243 171.674C313.664 171.233 314.014 171.012 314.294 171.012C314.854 171.012 315.335 171.915 315.738 173.72C315.965 174.804 316.079 175.726 316.079 176.489C316.079 180.059 314.104 181.988 310.463 181.885C309.133 181.848 308.036 181.343 307.021 180.34C306.023 179.297 305.244 177.933 304.684 176.248C303.581 172.998 303.029 169.367 303.029 165.355C303.029 160.3 303.743 155.275 305.161 152.266C306.596 149.217 308.382 147.692 310.517 147.692C312.95 147.692 314.736 149.658 315.874 153.59C316.469 155.676 316.762 158.956 316.762 161.444ZM311.222 163.189C311.887 163.189 312.219 162.547 312.219 161.263C312.219 160.34 312.062 159.598 311.747 159.036C311.449 158.475 311.012 158.194 310.434 158.194C309.874 158.194 309.314 158.736 308.753 159.819C308.193 160.862 307.913 161.985 307.913 163.189H311.222Z" fill="white"/>
<path d="M322.545 174.311C322.842 174.993 322.991 174.397 322.991 176.524V177.625C322.991 178.588 322.974 178.31 322.939 178.792C322.921 179.233 322.834 179.775 322.676 180.417C322.414 181.58 321.724 182.19 320.681 182.162C319.637 182.133 318.93 181.781 318.58 181.018C318.247 180.256 318.081 178.812 318.081 176.685V177.584C318.081 176.661 318.09 176.959 318.107 176.478C318.142 175.996 318.23 175.454 318.37 174.853C318.633 173.649 319.286 173.024 320.339 173.047C321.377 173.07 322.142 173.469 322.545 174.311Z" fill="white"/>
<path d="M238.207 163.838C238.207 159.024 238.942 154.772 240.413 151.643C241.883 148.513 243.514 147.896 245.405 147.896C247.295 147.896 249.016 148.513 250.469 151.643C251.922 154.732 252.649 158.963 252.649 163.778C252.649 167.108 252.272 170.077 251.519 172.684C250.767 175.252 249.848 177.158 248.762 178.401C247.695 179.605 246.584 180.201 245.437 180.168C244.289 180.136 243.152 179.565 242.067 178.281C240.982 176.957 240.063 175.031 239.31 172.504C238.575 169.936 238.207 167.048 238.207 163.838ZM243.695 168.171C244.255 169.134 244.824 169.615 245.402 169.615C245.979 169.615 246.557 169.114 247.134 168.111C247.712 167.108 247.978 165.965 247.978 164C247.978 162.034 247.707 160.569 247.164 159.606C246.622 158.643 246.029 158.162 245.405 158.162C244.781 158.162 244.188 158.664 243.646 159.667C243.103 160.67 242.832 162.154 242.832 164.12C242.832 166.046 243.135 167.168 243.695 168.171Z" fill="white"/>
</svg>
