<svg width="804" height="638" viewBox="0 0 804 638" fill="none" xmlns="http://www.w3.org/2000/svg">
<path d="M91.7075 373.169H13.8296L14.8097 506.247L91.7075 521.108V373.169Z" fill="#CFD4DB"/>
<path d="M153.179 291.883L91.6245 373.123V521.371L216.241 476.524V456.046V439.903L153.179 433.567V291.883Z" fill="#E5E8EC"/>
<path d="M90.976 373.169H14.0464L90.976 262.308V373.169Z" fill="#949DAD"/>
<path d="M90.976 262.308L153.239 254.022V284.958H90.9761L90.976 262.308Z" fill="#949DAD"/>
<path d="M47.1488 307.658L41.1148 307.344L33.8062 373.051L41.2915 373.168L47.1488 307.658Z" fill="#FFC401"/>
<path d="M41.2896 373.169L47.1468 307.659L52.7684 308.422V373.169H41.2896Z" fill="#FF8C01"/>
<path d="M59.4977 307.659H52.7686V373.133H59.4977V307.659Z" fill="#1DB9D4"/>
<path d="M64.3747 307.914L59.498 307.668V373.169H64.3747V307.914Z" fill="#158699"/>
<path d="M70.3126 296.47H63.5835V373.003H70.3126V296.47Z" fill="#1DB9D4"/>
<path d="M84.7183 296.768L70.313 296.48V373.002H84.7183V296.768Z" fill="#158699"/>
<path d="M77.484 306.941H70.7549V373.002H77.484V306.941Z" fill="#FFC401"/>
<path d="M84.7183 307.198L77.4844 306.95V373.002H84.7183V307.198Z" fill="#FF8C01"/>
<path d="M91.644 373.133V284.034L153.21 283.281V292.278L91.644 373.133Z" fill="#6BD5E5"/>
<path d="M91.6445 373.143V284.034H84.7183V373.143H91.6445Z" fill="#1DB9D4"/>
<path d="M4.33301 465.284C16.0609 460.356 56.4769 452.715 85.9244 465.393C74.5352 469.797 32.8984 473.524 4.33301 465.284Z" fill="#42536E"/>
<path d="M33.8379 453.245C13.6107 453.548 3.28978 458.484 0.657715 460.913C2.77734 463.503 6.32668 465.076 7.8364 465.539C9.51539 464.883 14.9619 463.342 23.3158 462.419C33.7583 461.266 40.6381 460.913 56.6089 461.607C69.3856 462.162 79.0465 465.021 82.2798 466.38C88.7185 465.469 90.4596 463.36 90.5253 462.419C87.3344 456.938 72.7146 454.424 65.8035 453.852C63.5763 453.523 54.0651 452.941 33.8379 453.245Z" fill="#2CB07C"/>
<path d="M89.6626 480.844L90.1266 474.173C96.2482 473.348 116.684 475.612 114.929 499.029C113.525 517.763 95.1563 524.74 86.1477 525.887L86.5318 519.53C103.114 516.553 108.019 504.623 108.399 499.029C108.46 481.353 95.9334 479.54 89.6626 480.844Z" fill="#2CB07C"/>
<path d="M67.6658 468.962C56.658 470.914 33.0013 469.708 22.6675 468.895C23.6073 483.497 27.4753 486.138 32.168 491.816C35.9221 496.358 45.687 500.83 50.0869 502.066C69.1537 509.437 74.6467 534.868 74.5238 546.621C77.6689 545.343 82.9406 541.871 84.9881 540.356L90.885 462.467C85.4795 466.644 81.4254 466.521 67.6658 468.962Z" fill="#36BD8D"/>
<path d="M5.625 540.602L0.429688 460.761C4.03769 465.687 16.7809 468.21 22.7016 468.856C22.4559 492.566 46.0436 501.043 48.1321 501.166C49.8029 501.264 53.7424 503.172 55.5033 504.114C71.5233 514.139 74.8662 536.69 74.5352 546.712C62.1169 551.716 54.7181 552.634 34.0657 551.192C17.5438 550.037 8.22112 543.651 5.625 540.602Z" fill="#64E7A4"/>
<path d="M355.983 454.228V515.607L344.974 519.593L344.974 453.17L355.983 454.228Z" fill="#0065FF" stroke="#0065FF"/>
<path d="M491.538 153.338L491.535 468.201L502.86 468.968C508.635 469.358 513.535 464.779 513.535 458.99V163.78C513.535 158.398 509.275 153.982 503.897 153.787L491.538 153.338Z" fill="#0065FF" stroke="#0065FF"/>
<path d="M151.489 425.675V189.366C151.489 186.786 153.451 184.63 156.019 184.388L490.55 152.846C496.418 152.293 501.489 156.908 501.489 162.802V458.674C501.489 464.623 496.327 469.256 490.412 468.616L344.489 452.815V520.315L262.489 510.315V444.815L160.592 435.635C155.437 435.171 151.489 430.85 151.489 425.675Z" fill="#6BD5E5"/>
<path d="M483.989 168.315L162.489 193.315V405.815L483.989 430.815V168.315Z" fill="white"/>
<path d="M421.06 442.051L369.434 439.484C371.554 460.312 371.594 471.991 370.293 492.827L421.06 499.709C424.073 477.192 424.293 464.567 421.06 442.051Z" fill="#FFC401" stroke="#FFC401"/>
<path d="M344.491 452.818L262.487 444.814L262.491 510.314L344.491 520.322V452.818Z" fill="#3AC1D5"/>
<path d="M127.34 548.091L33.7754 584.323L238.987 633.403L332.512 588.749L137.771 549.479C132.582 548.091 128.781 547.946 127.34 548.091Z" fill="#E5E8EC"/>
<path d="M238.992 633.401L33.792 584.338V586.687V588.649L238.992 637.575L332.494 592.709V588.766L238.992 633.401Z" fill="#0B6CFF"/>
<path d="M61.8867 585.356L51.3352 582.843C50.3837 582.617 50.2898 581.3 51.1995 580.94L70.3759 573.366C70.5634 573.292 70.7689 573.276 70.9655 573.321L80.9558 575.598C81.9038 575.814 82.017 577.119 81.1205 577.495L62.5053 585.305C62.3097 585.387 62.093 585.405 61.8867 585.356Z" fill="white"/>
<path d="M126.229 551.478L136.386 553.547C137.355 553.744 137.481 555.078 136.565 555.452L118.032 563.031C117.846 563.107 117.642 563.125 117.445 563.083L107.018 560.863C106.05 560.657 105.938 559.319 106.859 558.955L125.662 551.528C125.842 551.457 126.039 551.44 126.229 551.478Z" fill="white"/>
<path d="M260.893 618.433L241.381 627.87C241.173 627.97 240.938 627.996 240.714 627.943L227.957 624.905C227.068 624.693 226.905 623.497 227.706 623.056L245.361 613.326C245.575 613.207 245.826 613.172 246.065 613.227L260.68 616.557C261.602 616.767 261.744 618.021 260.893 618.433Z" fill="white"/>
<path d="M79.3625 569.816L98.9647 562.073C99.149 562.001 99.3508 561.984 99.5444 562.026L109.909 564.278C110.874 564.488 110.984 565.821 110.066 566.185L90.4084 573.989C90.2216 574.063 90.0167 574.079 89.8205 574.035L79.5109 571.722C78.55 571.506 78.4466 570.178 79.3625 569.816Z" fill="white"/>
<path d="M288.741 604.964L269.698 614.174C269.495 614.272 269.264 614.299 269.044 614.25L235.485 606.72C234.562 606.513 234.416 605.259 235.265 604.845L253.865 595.777C254.067 595.678 254.296 595.651 254.516 595.698L288.518 603.086C289.447 603.288 289.597 604.55 288.741 604.964Z" fill="white"/>
<path d="M315.738 591.906L296.813 601.059C296.613 601.156 296.387 601.183 296.169 601.137L284.552 598.664C283.647 598.471 283.466 597.259 284.275 596.811L301.295 587.377C301.503 587.262 301.746 587.224 301.979 587.272L315.502 590.026C316.44 590.217 316.6 591.489 315.738 591.906Z" fill="white"/>
<path d="M155.709 588.819L167.598 591.487C167.813 591.535 168.037 591.511 168.237 591.419L186.813 582.828C187.684 582.425 187.543 581.147 186.606 580.943L174.51 578.315C174.296 578.268 174.073 578.293 173.875 578.385L155.506 586.937C154.641 587.34 154.778 588.61 155.709 588.819Z" fill="white"/>
<path d="M202.414 566.994L212.89 569.128C213.831 569.319 213.987 570.598 213.12 571.011L195.351 579.46C195.153 579.555 194.928 579.581 194.713 579.535L182.766 576.991C181.807 576.787 181.684 575.469 182.589 575.091L201.829 567.051C202.014 566.974 202.218 566.954 202.414 566.994Z" fill="white"/>
<path d="M175.444 593.248L187.601 595.975C187.818 596.024 188.044 595.999 188.245 595.905L206.86 587.18C207.726 586.774 207.582 585.501 206.648 585.298L193.574 582.457C193.352 582.409 193.119 582.438 192.915 582.539L175.217 591.377C174.375 591.797 174.527 593.042 175.444 593.248Z" fill="white"/>
<path d="M195.055 597.648L207.545 600.45C207.762 600.499 207.988 600.474 208.189 600.38L226.991 591.554C227.856 591.147 227.712 589.874 226.778 589.671L213.538 586.795C213.317 586.747 213.086 586.775 212.884 586.875L194.832 595.775C193.986 596.192 194.135 597.441 195.055 597.648Z" fill="white"/>
<path d="M240.403 574.731L252.756 577.247C253.695 577.438 253.853 578.713 252.989 579.128L234.808 587.859C234.609 587.955 234.383 587.982 234.167 587.936L221.391 585.215C220.449 585.015 220.307 583.729 221.183 583.328L239.787 574.802C239.98 574.714 240.196 574.689 240.403 574.731Z" fill="white"/>
<path d="M214.989 602.121L227.691 604.971C227.912 605.02 228.143 604.994 228.346 604.895L246.944 595.882C247.799 595.467 247.649 594.206 246.721 594.005L233.762 591.189C233.542 591.141 233.312 591.169 233.11 591.268L214.768 600.247C213.92 600.662 214.067 601.914 214.989 602.121Z" fill="white"/>
<path d="M261.108 578.948L273.542 581.48C274.48 581.671 274.639 582.945 273.776 583.361L255.364 592.235C255.164 592.331 254.938 592.358 254.721 592.312L241.834 589.568C240.893 589.368 240.75 588.083 241.625 587.681L260.492 579.019C260.685 578.931 260.901 578.906 261.108 578.948Z" fill="white"/>
<path d="M281.893 583.181L293.847 585.616C294.758 585.801 294.945 587.02 294.132 587.47L277.196 596.847C276.985 596.964 276.74 597 276.504 596.95L262.7 594.011C261.763 593.811 261.615 592.537 262.481 592.129L281.267 583.257C281.462 583.165 281.682 583.138 281.893 583.181Z" fill="white"/>
<path d="M198.107 604.108L179.668 613.169C179.459 613.272 179.221 613.299 178.995 613.245L106.16 595.9L100.594 594.574L88.7624 591.756C87.8204 591.532 87.7153 590.233 88.6091 589.861L108.156 581.707C108.348 581.626 108.561 581.608 108.765 581.655L120.251 584.295C121.196 584.512 121.31 585.813 120.416 586.19L100.594 594.574L106.16 595.9L128.16 586.249C128.358 586.162 128.578 586.142 128.788 586.191L197.892 602.236C198.808 602.449 198.951 603.693 198.107 604.108Z" fill="white"/>
<path d="M205.113 604.119L186.413 613.187C185.567 613.598 185.703 614.842 186.617 615.06L199.191 618.054C199.421 618.109 199.662 618.081 199.873 617.974L218.238 608.7C219.074 608.278 218.923 607.041 218.009 606.833L205.771 604.043C205.55 603.993 205.317 604.019 205.113 604.119Z" fill="white"/>
<path d="M225.106 608.709L207.698 618.291C206.897 618.732 207.059 619.928 207.948 620.14L220.342 623.091C220.582 623.148 220.835 623.115 221.052 622.996L238.739 613.351C239.548 612.91 239.381 611.703 238.483 611.499L225.811 608.61C225.572 608.556 225.321 608.591 225.106 608.709Z" fill="white"/>
<path d="M81.3236 589.985L69.9085 587.266C68.9646 587.042 68.8618 585.739 69.7586 585.369L88.4807 577.641C88.6702 577.563 88.8793 577.545 89.0794 577.589L100.691 580.173C101.644 580.385 101.759 581.698 100.858 582.072L81.9391 589.935C81.7443 590.016 81.5289 590.034 81.3236 589.985Z" fill="white"/>
<path d="M143.704 555.037L155.44 557.427C156.403 557.624 156.535 558.946 155.63 559.328L137.217 567.109C137.029 567.189 136.82 567.209 136.62 567.166L125.49 564.796C124.54 564.594 124.407 563.292 125.297 562.902L143.103 555.101C143.292 555.018 143.502 554.996 143.704 555.037Z" fill="white"/>
<path d="M163.084 558.984L174.513 561.312C175.478 561.508 175.607 562.836 174.698 563.215L155.835 571.076C155.648 571.154 155.441 571.173 155.242 571.131L144.459 568.835C143.507 568.632 143.376 567.327 144.27 566.939L162.487 559.046C162.675 558.965 162.883 558.943 163.084 558.984Z" fill="white"/>
<path d="M136.424 584.492L147.662 587.014C147.872 587.061 148.091 587.039 148.287 586.952L167.172 578.569C168.055 578.177 167.923 576.883 166.978 576.678L154.694 574.009C154.477 573.962 154.25 573.988 154.05 574.084L136.212 582.614C135.355 583.024 135.498 584.284 136.424 584.492Z" fill="white"/>
<path d="M181.547 562.744L193.606 565.2C194.561 565.395 194.702 566.702 193.809 567.095L175.356 575.221C175.164 575.305 174.95 575.327 174.745 575.283L162.78 572.736C161.83 572.534 161.697 571.231 162.587 570.842L180.946 562.808C181.135 562.725 181.345 562.703 181.547 562.744Z" fill="white"/>
<path d="M116.575 565.921L98.0307 574.026C97.1451 574.413 97.2692 575.707 98.2122 575.918L108.876 578.311C109.075 578.356 109.283 578.338 109.472 578.262L129.049 570.305C129.96 569.935 129.846 568.61 128.885 568.401L117.188 565.86C116.982 565.815 116.768 565.836 116.575 565.921Z" fill="white"/>
<path d="M135.877 570.109L116.796 578.231C115.902 578.611 116.021 579.914 116.969 580.127L128.141 582.634C128.351 582.681 128.571 582.659 128.767 582.571L147.394 574.271C148.277 573.878 148.143 572.586 147.199 572.381L136.481 570.052C136.279 570.008 136.068 570.028 135.877 570.109Z" fill="white"/>
<path d="M220.417 570.859L202.172 579.282C201.299 579.685 201.443 580.968 202.383 581.168L214.143 583.672C214.358 583.718 214.582 583.692 214.781 583.597L232.828 575.025C233.695 574.612 233.539 573.333 232.598 573.141L221.036 570.787C220.827 570.744 220.611 570.769 220.417 570.859Z" fill="white"/>
<path d="M509.275 605.807L422.532 590.399L476.995 559.566L560.537 572.152L509.275 605.807Z" fill="#FFC401"/>
<path d="M509.275 605.807L422.532 590.399V618.614L509.318 633.402L509.275 605.807Z" fill="#FFD740"/>
<path d="M560.537 572.152L509.318 605.696L509.317 633.402L560.536 599.859L560.537 572.152Z" fill="#FF991F"/>
<path d="M598.724 562.699L582.844 489.97C634.975 500.591 683.858 494.395 701.783 489.97L685.586 562.699C671.939 573.807 639.865 571.747 625.114 570.8L625.084 570.798C612.98 570.02 602.588 565.399 598.724 562.699Z" fill="#FFC401"/>
<path d="M701.775 489.909C646.02 501.265 599.214 495.051 582.78 490.525C577.022 489.189 571.402 485.392 569.312 483.661V469.953V469.833C572.531 463.081 591.858 458.95 601.119 457.728C614.222 456.529 647.316 454.851 674.86 457.728C702.403 460.606 711.114 467.077 712.026 469.953C712.079 470.203 712.082 470.477 712.026 470.771V483.54C710.764 486.84 704.666 489.161 701.775 489.909Z" fill="#FFC401"/>
<path d="M603.061 457.979C579.713 459.315 570.76 466.594 569.202 470.067L577.209 475.917C584.298 472.114 597.397 470.432 603.061 470.067C618.292 467.382 653.084 467.969 668.576 468.598C690.753 469.139 701.992 473.721 704.84 475.944C709.114 474.234 711.34 471.403 711.919 470.201C709.715 464.057 697.319 458.912 666.197 456.813C641.3 455.135 613.733 456.891 603.061 457.979Z" fill="#FF991F"/>
<path d="M582.919 490.549C590.845 492.706 614.164 497.167 643.118 496.327C672.072 495.488 694.249 491.841 701.709 490.384" stroke="black" stroke-width="0.4"/>
<path d="M618.919 468.461C595.06 469.067 581.315 473.684 577.425 475.918C597.956 481.969 635.344 484.346 665.168 482.725C689.027 481.428 701.423 477.664 704.639 475.944C698.094 472.471 687.968 470.515 684.51 470.082C681.052 469.65 648.743 467.705 618.919 468.461Z" fill="#344462"/>
<path d="M583.236 410.099L640.383 477.688C637.15 480.143 702.718 431.499 725.352 405.396C733.383 401.42 744.592 352.816 750.372 331.291L717.507 347.219C725.034 341.096 740.799 327.897 743.641 324.093C747.194 319.338 755.012 303.311 753.932 298.708C753.068 295.027 760.273 256.758 763.984 238.084L738.003 265.843C734.175 262.26 757.5 229.023 769.642 212.853C764.478 213.766 778.698 148.124 786.453 115.189C756.572 120.877 706.212 162.565 684.266 183.202C689.998 177.781 680.501 144.678 675.032 128.793C678.615 124.964 586.553 -22.2543 596.027 11.752C605.5 45.7582 593.509 75.837 596.534 83.1574C598.954 89.0137 583.715 134.907 575.793 157.121L602.71 213.739C594.9 201.939 577.616 178.58 570.969 179.542C562.661 180.745 563.758 241.927 559.96 239.27C556.921 237.145 559.012 285.371 560.437 309.749L598.817 348.364L561.111 330.133C562.056 339.996 563.63 361.402 562.369 368.122C561.107 374.842 567.336 387.436 570.609 392.893L583.236 410.099Z" fill="#85D9B8"/>
<path d="M618.928 100.81C622.389 93.2746 607.616 48.6221 599.797 27.2378C628.769 61.8221 685.214 141.808 679.225 185.077C679.323 188.042 673.58 201.342 670.696 207.621C678.373 207.367 678.121 234.797 679.01 250.214C681.745 254.975 683.183 258.814 681.709 260.128C680.036 261.618 679.408 257.122 679.01 250.214C673.86 241.247 664.109 229.008 660.538 224.194C661.006 237.945 600.579 330.698 619.746 293.715C635.789 262.76 625.885 152.214 618.928 100.81Z" fill="#77C6A9"/>
<path d="M621.126 335.41L621.586 349.308L640.576 362.593L621.126 335.41Z" fill="#77C6A9"/>
<path d="M644.133 470.072C654.662 395.828 696.097 224.033 777.606 130.806C771.392 157.911 760.075 212.084 764.522 211.937C770.081 211.753 720.624 258.84 731.988 265.884C735.97 268.353 736.057 270.153 734.886 271.357C742.427 267.631 753.349 256.099 758.367 250.171C755.861 267.877 750.287 303.123 748.039 302.456C745.228 301.621 752.327 319.937 714.24 346.242C712.778 348.764 710.786 353.962 714.516 354.581C719.18 355.354 738.177 340.812 743.706 339.702C749.234 338.591 726.051 422.839 644.133 470.072Z" fill="#77C6A9"/>
<path d="M326.706 623.795L323.089 625.074C323.089 626.979 320.294 628.615 318.781 629.08C318.657 629.109 318.531 629.141 318.404 629.176C318.517 629.154 318.644 629.122 318.781 629.08C321.806 628.375 323.892 629.631 324.399 630.162L328.204 629.48C328.855 627.924 329.467 624.608 326.706 623.795Z" fill="#EFEFEF" stroke="black" stroke-width="0.1"/>
<path d="M352.838 619.535C352.394 616.571 350.365 615.049 349.406 614.658L346.883 615.475C346.864 615.481 346.845 615.487 346.828 615.493L346.883 615.475C347.342 615.342 348.403 615.385 349.406 616.541C350.452 617.746 350.891 619.251 350.98 619.852C351.582 624.243 350.229 625.992 349.477 626.319L351.578 625.825C352.763 624.87 353.393 623.24 352.838 619.535Z" fill="#D1D1D1"/>
<path d="M398.596 611.171C401.248 606.911 398.541 604.907 396.856 604.437L349.402 614.658C350.414 614.951 352.539 616.533 352.946 620.518C353.318 624.146 352.233 625.522 351.487 625.842L351.278 625.907C351.343 625.895 351.414 625.873 351.487 625.842L398.596 611.171Z" fill="black"/>
<path d="M392.54 607.973C392.095 606.703 390.981 606.019 390.48 605.836L390.065 605.968C391.229 606.473 391.972 607.63 392.197 608.146C392.333 608.675 392.611 609.969 392.633 610.914C392.655 611.858 391.95 612.922 391.594 613.335L392.142 613.163C392.463 612.901 393.093 612.086 393.041 610.914C392.976 609.448 393.097 609.56 392.54 607.973Z" fill="#D1D1D1"/>
<path d="M346.291 616.267L346.9 615.473C348.162 615.189 349.324 616.361 349.748 616.983C350.854 618.88 351.109 620.539 351.098 621.132C351.458 623.503 350.333 626.319 349.493 626.335C348.821 626.348 348.461 626.027 348.365 625.865L349.028 625.265C349.772 624.185 349.818 622.411 349.748 621.659C349.703 620.984 349.43 619.314 348.698 618.037C347.965 616.759 346.788 616.325 346.291 616.267Z" fill="#C4C4C4"/>
<path d="M326.745 623.759L346.291 616.281C347.239 616.281 348.187 617.267 348.554 617.747C348.95 618.439 349.766 620.327 349.766 622.437C349.766 624.547 348.84 625.599 348.377 625.862L328.184 629.514C329.747 625.542 327.876 624.022 326.745 623.759Z" fill="black"/>
<path d="M241.305 334.315C241.305 340.346 241.67 345.084 242.401 348.53C243.132 351.833 243.902 353.484 244.711 353.484C245.546 353.484 246.316 352.192 247.021 349.607C247.751 346.879 248.339 345.515 248.782 345.515C249.565 345.515 250.518 349.32 251.64 356.93C252.24 361.094 252.541 364.827 252.541 368.129C252.541 373.586 251.823 378.683 250.387 383.421C248.9 389.164 247.073 392.036 244.906 392.036C242.479 392.036 240.143 387.226 237.899 377.606C236.829 373.011 235.954 366.909 235.276 359.299C234.597 351.546 234.258 343.074 234.258 333.885C234.258 324.552 234.597 316.152 235.276 308.686C235.954 301.076 236.829 294.974 237.899 290.379C240.065 280.902 242.375 276.164 244.828 276.164C245.82 276.164 246.786 276.954 247.725 278.533C248.665 279.969 249.356 281.405 249.8 282.841L250.427 284.995C250.896 286.718 251.262 288.082 251.523 289.087C252.201 291.958 252.541 295.261 252.541 298.994C252.541 302.584 252.267 306.676 251.718 311.27C250.779 319.167 249.878 323.116 249.017 323.116C248.521 323.116 247.817 321.537 246.903 318.378C246.433 315.937 245.755 314.716 244.867 314.716C244.006 314.716 243.197 316.439 242.44 319.885C241.683 323.331 241.305 328.141 241.305 334.315Z" fill="white"/>
<path d="M254.483 334.315C254.483 317.085 255.579 302.871 257.771 291.671C259.963 280.472 262.469 274.872 265.288 274.872C268.107 274.872 270.599 280.472 272.765 291.671C274.932 302.727 276.015 316.87 276.015 334.1C276.015 346.018 275.454 356.643 274.331 365.976C273.209 375.165 271.839 381.985 270.221 386.436C268.629 390.744 266.971 392.898 265.249 392.898C263.526 392.898 261.856 390.6 260.237 386.006C258.619 381.267 257.249 374.375 256.127 365.33C255.031 356.14 254.483 345.802 254.483 334.315ZM262.665 349.822C263.5 353.268 264.348 354.992 265.209 354.992C266.071 354.992 266.932 353.197 267.793 349.607C268.655 346.018 269.085 340.705 269.085 333.669C269.085 326.634 268.681 321.393 267.872 317.947C267.063 314.501 266.188 312.778 265.249 312.778C264.309 312.778 263.435 314.573 262.626 318.162C261.817 321.752 261.412 327.065 261.412 334.1C261.412 340.992 261.83 346.233 262.665 349.822Z" fill="white"/>
<path d="M292.364 230.289C292.573 228.136 292.925 226.628 293.421 225.766C293.917 224.905 294.569 224.474 295.378 224.474C296.214 224.474 296.879 224.905 297.375 225.766C297.871 226.628 298.21 228.136 298.393 230.289C298.602 232.443 298.719 234.381 298.745 236.104C298.797 237.684 298.824 240.125 298.824 243.427V372.006C298.824 375.309 298.797 377.821 298.745 379.544C298.719 381.124 298.602 382.919 298.393 384.929C298.001 388.805 296.892 390.744 295.065 390.744C293.264 390.744 292.26 387.226 292.051 380.19C290.955 387.082 289.428 390.528 287.47 390.528C285.121 390.528 282.981 384.929 281.05 373.729C279.118 362.386 278.153 349.248 278.153 334.315C278.153 319.239 279.118 306.03 281.05 294.686C283.007 283.343 285.147 277.672 287.47 277.672C289.402 277.672 290.902 281.261 291.972 288.441V243.212C291.972 239.909 291.985 237.468 292.012 235.889C292.064 234.166 292.181 232.299 292.364 230.289ZM286.022 347.238C286.7 351.115 287.522 353.053 288.488 353.053C289.454 353.053 290.25 351.115 290.876 347.238C291.529 343.361 291.855 339.126 291.855 334.531C291.855 329.793 291.542 325.413 290.915 321.393C290.315 317.373 289.493 315.362 288.449 315.362C287.405 315.362 286.57 317.373 285.943 321.393C285.317 325.27 285.004 329.577 285.004 334.315C285.004 339.054 285.343 343.361 286.022 347.238Z" fill="white"/>
<path d="M308.872 359.084H319.52C320.382 359.084 321.008 359.658 321.399 360.807C321.791 361.812 322.052 363.463 322.182 365.76C322.313 368.058 322.378 371.145 322.378 375.021C322.378 378.755 322.313 381.77 322.182 384.067C322.052 386.364 321.83 387.944 321.517 388.805C321.021 390.241 320.342 390.959 319.481 390.959H305.387C303.56 390.959 302.49 388.231 302.177 382.775C302.02 380.478 301.942 376.816 301.942 371.791V252.042C301.942 248.74 301.955 246.299 301.981 244.719C302.033 242.996 302.164 241.058 302.373 238.904C302.738 235.028 303.756 233.089 305.426 233.089C307.253 233.089 308.337 235.745 308.676 241.058C308.806 243.499 308.872 247.232 308.872 252.258V359.084Z" fill="white"/>
<path d="M324.919 296.409C324.919 293.107 324.933 290.666 324.959 289.087C325.011 287.364 325.128 285.425 325.311 283.272C325.676 279.538 326.694 277.672 328.365 277.672C329.617 277.672 330.505 278.892 331.027 281.333C331.47 283.343 331.705 286.43 331.731 290.594C331.758 292.03 331.771 294.112 331.771 296.84V372.221C331.771 375.524 331.745 378.037 331.692 379.76C331.666 381.339 331.549 383.206 331.34 385.359C331.001 389.093 329.996 390.959 328.325 390.959C326.681 390.959 325.676 389.021 325.311 385.144C325.128 382.99 325.011 381.124 324.959 379.544C324.933 377.965 324.919 375.452 324.919 372.006V296.409ZM331.34 256.565C331.157 258.575 330.818 260.011 330.322 260.873C329.826 261.734 329.161 262.165 328.325 262.165C327.516 262.165 326.864 261.734 326.368 260.873C325.872 260.011 325.52 258.503 325.311 256.35C325.128 254.196 325.011 252.329 324.959 250.75C324.933 249.027 324.919 246.514 324.919 243.212C324.919 239.909 324.933 237.468 324.959 235.889C325.011 234.166 325.128 232.299 325.311 230.289C325.676 226.412 326.694 224.474 328.365 224.474C330.009 224.474 331.001 226.412 331.34 230.289C331.549 232.443 331.666 234.381 331.692 236.104C331.745 237.684 331.771 240.125 331.771 243.427C331.771 246.73 331.745 249.242 331.692 250.965C331.666 252.545 331.549 254.411 331.34 256.565Z" fill="white"/>
<path d="M346.878 315.578L344.333 314.716V344.438C344.333 348.315 344.437 351.115 344.646 352.838C344.881 354.561 345.299 355.422 345.899 355.422C346.525 355.422 346.995 355.566 347.308 355.853C347.648 355.997 348 356.643 348.365 357.791C348.966 359.658 349.266 364.468 349.266 372.221C349.266 381.267 348.9 386.795 348.17 388.805C347.778 389.81 347.426 390.457 347.113 390.744C346.826 390.887 346.395 390.959 345.821 390.959C343.106 390.959 341.044 387.585 339.635 380.837C338.226 374.088 337.521 362.673 337.521 346.592V314.716C337.025 315.147 336.49 315.362 335.916 315.362C335.342 315.362 334.859 314.142 334.467 311.701C334.102 309.26 333.919 305.096 333.919 299.209C333.919 293.322 333.985 289.087 334.115 286.502C334.246 283.774 334.428 281.836 334.663 280.687C335.081 278.82 335.603 277.887 336.229 277.887L337.521 278.749V256.565C337.521 253.263 337.534 250.822 337.56 249.242C337.612 247.663 337.743 245.94 337.952 244.073C338.291 240.484 339.296 238.689 340.966 238.689C342.741 238.689 343.798 241.345 344.137 246.658C344.268 248.955 344.333 252.616 344.333 257.642V278.749C345.481 278.174 346.343 277.887 346.917 277.887C347.517 277.887 347.961 278.031 348.248 278.318C348.561 278.462 348.914 279.108 349.305 280.256C349.984 282.123 350.323 287.651 350.323 296.84C350.323 305.886 349.971 311.414 349.266 313.424C348.874 314.429 348.522 315.075 348.209 315.362C347.922 315.506 347.478 315.578 346.878 315.578Z" fill="white"/>
<path d="M371.608 320.747C371.608 329.505 371.203 336.038 370.394 340.346C369.611 344.51 368.737 346.592 367.771 346.592H358.493C358.493 350.612 358.924 353.986 359.785 356.715C360.646 359.443 361.507 360.807 362.369 360.807C363.882 360.807 365.07 359.945 365.931 358.222L366.362 357.361C366.988 355.781 367.51 354.992 367.928 354.992C368.763 354.992 369.481 358.222 370.081 364.683C370.42 368.56 370.59 371.863 370.59 374.591C370.59 387.37 367.811 393.759 362.251 393.759C360.32 393.759 358.597 391.964 357.084 388.375C355.596 384.641 354.434 379.76 353.599 373.729C351.955 362.099 351.133 349.105 351.133 334.746C351.133 316.655 352.19 302.225 354.304 291.456C356.444 280.543 359.106 275.087 362.29 275.087C365.918 275.087 368.58 282.123 370.277 296.194C371.164 303.66 371.608 311.845 371.608 320.747ZM363.347 326.993C364.339 326.993 364.835 324.695 364.835 320.101C364.835 316.798 364.6 314.142 364.13 312.132C363.687 310.122 363.034 309.117 362.173 309.117C361.338 309.117 360.503 311.055 359.667 314.932C358.832 318.665 358.415 322.685 358.415 326.993H363.347Z" fill="white"/>
<path d="M380.23 355.422C380.674 357.863 380.896 362.889 380.896 370.499V371.36C380.896 374.806 380.87 377.391 380.818 379.114C380.792 380.693 380.661 382.631 380.426 384.929C380.035 389.093 379.043 391.175 377.451 391.175C375.885 391.175 374.841 389.81 374.319 387.082C373.823 384.354 373.575 379.185 373.575 371.575V370.714C373.575 367.411 373.588 364.899 373.614 363.176C373.666 361.453 373.797 359.514 374.006 357.361C374.397 353.053 375.376 350.899 376.942 350.899C378.534 350.899 379.63 352.407 380.23 355.422Z" fill="white"/>
<path d="M254.483 334.315C254.483 317.085 255.579 302.871 257.771 291.671C259.963 280.472 262.469 274.872 265.288 274.872C268.107 274.872 270.599 280.472 272.765 291.671C274.932 302.727 276.015 316.87 276.015 334.1C276.015 346.018 275.454 356.643 274.331 365.976C273.209 375.165 271.839 381.985 270.221 386.436C268.629 390.744 266.971 392.898 265.249 392.898C263.526 392.898 261.856 390.6 260.237 386.006C258.619 381.267 257.249 374.375 256.127 365.33C255.031 356.14 254.483 345.802 254.483 334.315ZM262.665 349.822C263.5 353.268 264.348 354.992 265.209 354.992C266.071 354.992 266.932 353.197 267.793 349.607C268.655 346.018 269.085 340.705 269.085 333.669C269.085 326.634 268.681 321.393 267.872 317.947C267.063 314.501 266.188 312.778 265.249 312.778C264.309 312.778 263.435 314.573 262.626 318.162C261.817 321.752 261.412 327.065 261.412 334.1C261.412 340.992 261.83 346.233 262.665 349.822Z" fill="white"/>
<path d="M483.891 168.315L162.391 193.315V405.815L483.891 430.815V168.315Z" fill="white"/>
<path d="M162.391 219.393V193.344L483.989 168.315V200.365L162.391 219.393Z" fill="#FFE640"/>
<path d="M228.31 406.515V218.624L307.55 214.097L386.845 209.553V418.308L228.31 406.515Z" fill="#B2E6F3"/>
<path d="M476.594 303.049L392.698 302.924V293.595L461.962 293.363V230.41V218.084L476.594 217.357V230.41V303.049Z" fill="#C4C4C4"/>
<path d="M458.947 218.597L375.237 225.115L375.198 291.204L458.947 290.661V218.597Z" fill="#99C1FF"/>
<path d="M476.594 424.96L392.849 418.735L392.849 339.627L476.594 341.698V424.96Z" fill="#99C1FF"/>
<path d="M392.845 330.334V312.518L476.797 313.166V331.913L392.845 330.334Z" fill="#B2E6F3"/>
<path d="M225.712 218.897L170.795 222.034V402.057L225.712 406.139V218.897Z" fill="#CCE0FF"/>
<path d="M171.062 222.18L225.465 406.009M225.47 219.106L171.041 401.901" stroke="#99C1FF" stroke-width="0.5"/>
<path d="M458.948 222.522L375.199 226.452V212.585L458.948 207.924V222.522Z" fill="#5D9AFA"/>
<ellipse cx="173.879" cy="205.329" rx="3.08414" ry="3.89004" fill="#FF7143"/>
<ellipse cx="181.335" cy="204.728" rx="3.08414" ry="3.89004" fill="#C4C4C4"/>
<ellipse cx="188.989" cy="204.171" rx="3.08414" ry="3.89004" fill="#0065FF"/>
<path d="M263.13 315.21C263.13 316.895 263.375 318.219 263.865 319.182C264.355 320.104 264.871 320.566 265.414 320.566C265.974 320.566 266.491 320.205 266.963 319.482C267.453 318.72 267.847 318.339 268.145 318.339C268.67 318.339 269.309 319.402 270.061 321.529C270.464 322.692 270.665 324.015 270.665 324.937C270.665 326.462 270.184 327.886 269.221 329.21C268.223 330.815 266.905 331.496 265.475 331.456C263.843 331.41 262.351 330.273 260.845 327.585C260.128 326.301 259.541 324.317 259.086 322.191C258.631 320.024 258.403 317.657 258.403 315.089C258.403 312.481 258.634 310.562 259.089 308.476C259.544 306.349 260.13 304.644 260.848 303.36C262.301 300.713 263.874 299.547 265.519 299.547C266.184 299.547 266.808 299.609 267.439 300.051C268.069 300.452 268.533 300.853 268.83 301.254L269.25 301.856C269.565 302.337 269.81 302.719 269.986 302.999C270.441 303.802 270.668 304.725 270.668 305.768C270.668 306.771 270.482 307.487 270.114 308.77C269.484 310.977 268.88 311.521 268.302 311.521C267.97 311.521 267.497 311.639 266.884 310.756C266.569 310.074 266.114 309.733 265.519 309.733C264.941 309.733 264.399 310.215 263.891 311.178C263.383 312.14 263.13 313.484 263.13 315.21Z" fill="white"/>
<path d="M271.968 315.489C271.968 310.675 272.703 306.423 274.173 303.294C275.644 300.165 277.275 299.547 279.166 299.547C281.056 299.547 282.777 300.165 284.23 303.294C285.683 306.383 286.409 310.614 286.409 315.429C286.409 318.759 286.033 321.728 285.28 324.336C284.527 326.903 283.608 328.809 282.523 330.053C281.455 331.256 280.345 331.852 279.197 331.82C278.05 331.787 276.913 331.216 275.828 329.932C274.742 328.608 273.823 326.683 273.071 324.155C272.335 321.587 271.968 318.699 271.968 315.489ZM277.456 319.822C278.016 320.785 278.585 321.266 279.162 321.266C279.74 321.266 280.318 320.765 280.895 319.762C281.473 318.759 281.739 317.617 281.739 315.651C281.739 313.685 281.468 312.22 280.925 311.257C280.382 310.295 279.789 309.813 279.166 309.813C278.542 309.813 277.949 310.315 277.406 311.318C276.864 312.321 276.593 313.805 276.593 315.771C276.593 317.697 276.895 318.819 277.456 319.822Z" fill="white"/>
<path d="M297.37 286.301C297.51 285.7 297.746 285.278 298.079 285.038C298.411 284.797 298.825 284.688 299.391 284.677C299.928 284.666 300.398 284.797 300.73 285.038C301.063 285.278 301.291 285.7 301.413 286.301C301.553 286.903 301.637 287.483 301.654 287.964C301.689 288.406 301.707 289.088 301.707 290.01V325.741C301.707 326.664 301.689 327.366 301.654 327.847C301.637 328.289 301.558 328.79 301.418 329.352C301.156 330.435 300.405 332.379 299.182 332.349C297.911 332.317 297.304 329.994 297.164 328.028C296.429 329.954 295.09 332.204 293.777 332.204C292.192 332.153 291.082 329.352 289.786 326.223C288.491 323.053 287.843 319.382 287.843 315.21C287.843 310.997 288.491 307.826 289.786 304.657C291.099 301.487 292.503 299.464 294.061 299.464C295.356 299.464 296.394 300.906 297.112 302.912V289.95C297.112 289.027 297.121 288.345 297.138 287.904C297.173 287.423 297.247 286.863 297.37 286.301ZM293.121 318.82C293.576 319.904 294.127 320.445 294.775 320.445C295.423 320.445 295.957 319.904 296.377 318.82C296.814 317.737 297.033 316.554 297.033 315.27C297.033 313.946 296.823 312.722 296.403 311.599C296 310.475 295.449 309.914 294.749 309.914C294.049 309.914 293.488 310.475 293.068 311.599C292.648 312.682 292.438 313.886 292.438 315.21C292.438 316.534 292.666 317.737 293.121 318.82Z" fill="white"/>
<path d="M308.446 322.13H315.588C316.166 322.13 316.586 322.291 316.848 322.612C317.111 322.893 317.286 323.354 317.373 323.996C317.461 324.638 317.505 325.5 317.505 326.584C317.505 327.627 317.461 330.146 317.373 330.788C317.286 331.43 317.137 331.871 316.927 332.112C316.594 332.513 316.12 332.782 315.542 332.782L306.107 332.532C304.847 332.493 304.166 331.951 303.956 330.427C303.851 329.785 303.798 327.085 303.798 325.681V289.89C303.798 288.967 303.807 288.285 303.825 287.844C303.86 287.362 303.947 286.821 304.087 286.219C304.332 285.136 305.005 284.621 306.135 284.594C307.345 284.566 308.087 285.336 308.315 286.821C308.402 287.503 308.446 288.546 308.446 289.95V322.13Z" fill="white"/>
<path d="M319.209 304.618C319.209 303.695 319.192 303.622 319.209 303.181C319.244 302.699 319.327 301.519 319.449 300.917C319.694 299.874 320.377 299.352 321.497 299.352C322.333 299.352 322.933 299.693 323.283 300.375C323.58 300.937 323.738 301.8 323.756 302.963C323.773 303.364 323.804 303.976 323.804 304.738V325.801C323.804 326.724 323.787 327.426 323.752 327.908C323.734 328.349 323.655 330.826 323.515 331.428C323.288 332.471 322.597 332.964 321.501 332.943C320.404 332.921 319.717 332.451 319.472 331.368C319.349 330.766 319.27 328.289 319.235 327.847C319.218 327.406 319.209 326.704 319.209 325.741V304.618ZM323.515 293.485C323.393 294.046 323.165 294.448 322.833 294.688C322.5 294.929 322.054 295.049 321.494 295.049C320.951 295.049 320.513 294.929 320.181 294.688C319.848 294.448 319.612 294.026 319.472 293.424C319.349 292.823 319.27 292.301 319.235 291.86C319.218 291.378 319.214 290.579 319.214 289.656C319.214 288.733 319.223 288.051 319.24 287.61C319.275 287.129 319.354 286.607 319.476 286.045C319.721 284.962 320.42 284.449 321.524 284.42C322.629 284.392 323.292 284.962 323.52 286.045C323.66 286.647 323.739 287.189 323.756 287.67C323.791 288.111 323.809 288.794 323.809 289.716C323.809 290.639 323.787 291.439 323.752 291.92C323.734 292.361 323.655 292.883 323.515 293.485Z" fill="white"/>
<path d="M333.936 312.209L332.23 311.969V320.273C332.23 321.357 332.3 322.139 332.44 322.62C332.597 323.102 332.877 323.343 333.28 323.343C333.7 323.343 334.015 323.383 334.225 323.463C334.453 323.503 334.689 323.684 334.934 324.005C335.337 324.526 335.538 325.87 335.538 328.037C335.538 330.564 335.293 332.109 334.803 332.671C334.54 332.951 334.43 333.131 334.058 333.27C333.792 333.27 333.62 333.255 333.235 333.255C331.39 333.207 330.024 332.33 329.079 330.444C328.134 328.558 327.661 325.369 327.661 320.875V311.969C327.328 312.089 326.969 312.149 326.584 312.149C326.199 312.149 325.875 311.808 325.613 311.126C325.368 310.444 325.245 309.281 325.245 307.636C325.245 305.991 325.289 304.807 325.377 304.085C325.464 303.323 325.587 302.781 325.744 302.46C326.024 301.939 326.299 301.712 326.719 301.712L327.661 301.919V295.72C327.661 294.797 327.67 294.115 327.687 293.674C327.722 293.233 327.81 292.751 327.95 292.23C328.177 291.227 328.851 290.725 329.972 290.725C331.162 290.725 331.871 291.467 332.098 292.952C332.186 293.594 332.23 294.617 332.23 296.021V301.919C333 301.758 333.589 301.686 333.974 301.686C334.376 301.686 334.663 301.718 334.855 301.798C335.065 301.838 335.302 302.019 335.564 302.34C336.019 302.861 336.247 304.406 336.247 306.974C336.247 309.501 336.011 311.046 335.538 311.608C335.275 311.888 335.039 312.069 334.829 312.149C334.637 312.189 334.339 312.209 333.936 312.209Z" fill="white"/>
<path d="M350.523 313.095C350.523 315.542 350.251 317.368 349.709 318.571C349.184 319.735 348.597 320.316 347.949 320.316H341.727C341.727 321.44 342.015 322.383 342.593 323.145C343.171 323.907 343.748 324.288 344.326 324.288C345.341 324.288 346.138 324.048 346.715 323.566L347.004 323.325C347.424 322.884 347.774 322.663 348.054 322.663C348.615 322.663 349.096 323.566 349.499 325.372C349.726 326.455 349.84 327.378 349.84 328.14C349.84 331.71 347.865 333.639 344.224 333.536C342.893 333.499 341.797 332.994 340.781 331.991C339.783 330.948 339.005 329.584 338.444 327.899C337.342 324.649 336.79 321.019 336.79 317.007C336.79 311.951 337.503 306.926 338.921 303.917C340.357 300.868 342.142 299.344 344.278 299.344C346.711 299.344 348.496 301.309 349.634 305.241C350.229 307.327 350.523 310.607 350.523 313.095ZM344.982 314.84C345.648 314.84 345.98 314.198 345.98 312.914C345.98 311.992 345.823 311.249 345.508 310.688C345.21 310.126 344.772 309.845 344.195 309.845C343.635 309.845 343.074 310.387 342.514 311.47C341.954 312.513 341.674 313.636 341.674 314.84H344.982Z" fill="white"/>
<path d="M356.306 325.962C356.603 326.644 356.752 326.048 356.752 328.175V329.276C356.752 330.239 356.734 329.961 356.699 330.443C356.682 330.884 356.594 331.426 356.437 332.068C356.174 333.231 355.485 333.842 354.441 333.813C353.398 333.784 352.691 333.432 352.341 332.67C352.008 331.907 351.842 330.463 351.842 328.337V329.235C351.842 328.312 351.851 328.61 351.868 328.129C351.903 327.647 351.991 327.106 352.131 326.504C352.393 325.3 353.047 324.675 354.1 324.698C355.138 324.721 355.903 325.12 356.306 325.962Z" fill="white"/>
<path d="M271.968 315.489C271.968 310.675 272.703 306.423 274.173 303.294C275.644 300.165 277.275 299.547 279.166 299.547C281.056 299.547 282.777 300.165 284.23 303.294C285.683 306.383 286.409 310.614 286.409 315.429C286.409 318.759 286.033 321.728 285.28 324.336C284.527 326.903 283.608 328.809 282.523 330.053C281.455 331.256 280.345 331.852 279.197 331.82C278.05 331.787 276.913 331.216 275.828 329.932C274.742 328.608 273.823 326.683 273.071 324.155C272.335 321.587 271.968 318.699 271.968 315.489ZM277.456 319.822C278.016 320.785 278.585 321.266 279.162 321.266C279.74 321.266 280.318 320.765 280.895 319.762C281.473 318.759 281.739 317.617 281.739 315.651C281.739 313.685 281.468 312.22 280.925 311.257C280.382 310.295 279.789 309.813 279.166 309.813C278.542 309.813 277.949 310.315 277.406 311.318C276.864 312.321 276.593 313.805 276.593 315.771C276.593 317.697 276.895 318.819 277.456 319.822Z" fill="white"/>
</svg>
