<svg width="71" height="70" viewBox="0 0 71 70" fill="none" xmlns="http://www.w3.org/2000/svg">
<path d="M70.6992 35C70.6992 54.33 55.0292 70 35.6992 70C16.3693 70 0.699219 54.33 0.699219 35C0.699219 15.67 16.3693 0 35.6992 0C55.0292 0 70.6992 15.67 70.6992 35Z" fill="#FB6F57"/>
<path d="M56.5977 24.0508C56.5977 22.9462 55.7022 22.0508 54.5977 22.0508H17.7549C16.6503 22.0508 15.7549 22.9462 15.7549 24.0508V45.5268C15.7549 46.6314 16.6503 47.5268 17.7549 47.5268H54.5977C55.7022 47.5268 56.5977 46.6314 56.5977 45.5268V24.0508Z" fill="#24323F"/>
<path d="M17.7334 45.8252V23.7522H54.6196V45.8252H17.7334Z" fill="#24323F"/>
<path d="M54.6745 23.7207H17.7051V45.8247H54.6745V23.7207Z" fill="white"/>
<path d="M20.8584 35.4978V33.9543L30.0698 30.0728V32.0997L23.7895 34.6975L30.0698 37.4095V39.3507L20.8584 35.4978Z" fill="#6BD5E5"/>
<path d="M50.54 33.9256V35.469L41.3286 39.3506V37.3236L47.609 34.7258L41.3286 32.0139V30.0727L50.54 33.9256Z" fill="#6BD5E5"/>
<path d="M38.8842 28.2251H36.8022L32.5146 41.7751H34.6144L38.8842 28.2251Z" fill="#6BD5E5"/>
<path d="M61.0153 48.9669H11.3643C10.812 48.9669 10.3643 48.5191 10.3643 47.9669V47.5268L62.0153 47.5269V47.9669C62.0153 48.5191 61.5676 48.9669 61.0153 48.9669Z" fill="#ABB7B7"/>
<path d="M39.8945 47.5269H31.5039C31.5039 48.0099 31.8955 48.4015 32.3785 48.4015H39.0199C39.503 48.4015 39.8945 48.0099 39.8945 47.5269Z" fill="#24323F"/>
</svg>
